<svg width="52" height="52" viewBox="0 0 52 52" fill="none" xmlns="http://www.w3.org/2000/svg">
<rect width="52" height="52" rx="8" fill="#CEFAE7"/>
<path d="M22.685 36.8486L25.2856 34.6609C25.6763 34.3261 26.3237 34.3261 26.7143 34.6609L29.315 36.8486C29.9177 37.1499 30.6544 36.8486 30.8776 36.2012L31.3687 34.7167C31.4915 34.3595 31.3687 33.8349 31.1008 33.5671L28.5671 31.0222C28.3774 30.8436 28.2323 30.4865 28.2323 30.2297V27.0487C28.2323 26.5799 28.5783 26.3567 29.0136 26.5352L34.494 28.9015C35.3534 29.2698 36.0566 28.8122 36.0566 27.8746V26.4348C36.0566 25.687 35.4985 24.8275 34.8065 24.5373L28.5671 21.8474C28.3886 21.7692 28.2323 21.5348 28.2323 21.3339V17.9854C28.2323 16.9363 27.4621 15.6973 26.5246 15.2174C26.1897 15.0499 25.7991 15.0499 25.4642 15.2174C24.5266 15.6973 23.7565 16.9474 23.7565 17.9966V21.3451C23.7565 21.546 23.6002 21.7804 23.4216 21.8585L17.1935 24.5485C16.5014 24.8275 15.9434 25.687 15.9434 26.4348V27.8746C15.9434 28.8122 16.6465 29.2698 17.506 28.9015L22.9863 26.5352C23.4105 26.3455 23.7677 26.5799 23.7677 27.0487V30.2297C23.7677 30.4865 23.6226 30.8436 23.444 31.0222L20.9103 33.5671C20.6424 33.8349 20.5196 34.3484 20.6424 34.7167L21.1335 36.2012C21.3344 36.8486 22.0711 37.1611 22.685 36.8486Z" stroke="#32A071" stroke-width="1.5" stroke-linecap="round" stroke-linejoin="round"/>
</svg>
