<svg width="52" height="52" viewBox="0 0 52 52" fill="none" xmlns="http://www.w3.org/2000/svg">
<rect width="52" height="52" rx="8" fill="#EEE2FF"/>
<path fill-rule="evenodd" clip-rule="evenodd" d="M35.7402 28.8744C36.1741 28.9069 36.4987 29.2862 36.4661 29.72L36.2665 32.3558C36.1016 34.5303 34.2664 36.2332 32.0866 36.2332H19.9007C17.7209 36.2332 15.8857 34.5303 15.7207 32.3558L15.5211 29.72C15.4886 29.2862 15.8142 28.9069 16.2481 28.8744C16.684 28.8586 17.0601 29.1664 17.0937 29.6013L17.2923 32.236C17.3952 33.5932 18.5403 34.6574 19.9007 34.6574H32.0866C33.447 34.6574 34.5931 33.5932 34.695 32.236L34.8946 29.6013C34.9282 29.1664 35.3137 28.8576 35.7402 28.8744ZM27.349 15.4961C28.9278 15.4961 30.2358 16.6792 30.4328 18.2054L32.5018 18.2063C34.7037 18.2063 36.4937 20.0016 36.4937 22.2098V25.8225C36.4937 26.1029 36.3446 26.3614 36.104 26.5021C33.511 28.0206 30.2263 28.9063 26.7813 29.0245L26.7817 30.9139C26.7817 31.3488 26.4287 31.7018 25.9938 31.7018C25.5589 31.7018 25.206 31.3488 25.206 30.9139L25.2053 29.0247C21.7637 28.9077 18.4788 28.0218 15.8839 26.5021C15.6423 26.3614 15.4941 26.1029 15.4941 25.8225V22.1993C15.4941 19.9974 17.2895 18.2063 19.4966 18.2063L21.5548 18.2054C21.7518 16.6792 23.0598 15.4961 24.6387 15.4961H27.349ZM32.5018 19.782H19.4966C18.1582 19.782 17.0699 20.8662 17.0699 22.1993V25.3634C19.5635 26.7183 22.7072 27.4609 25.9792 27.4623L25.9938 27.4609L26.0055 27.4613L26.5057 27.4561C29.6003 27.3824 32.5524 26.6482 34.918 25.3634V22.2098C34.918 20.8704 33.8349 19.782 32.5018 19.782ZM27.349 17.0719H24.6387C23.9313 17.0719 23.3342 17.5533 23.1578 18.2056H28.8298C28.6534 17.5533 28.0563 17.0719 27.349 17.0719Z" fill="#882CFF"/>
</svg>
