<svg width="149" height="33" viewBox="0 0 149 33" fill="none" xmlns="http://www.w3.org/2000/svg">
<g clip-path="url(#clip0_1482_19444)">
<path d="M8.11707 16.8436C8.31464 16.7027 8.35296 16.6042 8.1541 16.4456C6.84154 15.4411 5.50811 14.4351 4.21483 13.4096C3.699 12.9961 3.12232 12.641 2.64339 12.1484L2.62402 12.1484L2.66229 21.0302L2.68166 21.0302C2.84049 20.8909 3.01721 20.7516 3.17604 20.6123C4.80973 19.376 6.45665 18.0994 8.11707 16.8436Z" fill="black"/>
<path d="M147.037 1.39429C147.036 1.09629 146.976 1.03695 146.678 1.03824L2.24139 1.66057C1.94339 1.66185 1.88405 1.72171 1.88533 2.01971L1.91422 8.72464L1.98683 25.5764L2.0127 31.581C2.01398 31.879 2.07384 31.9384 2.37184 31.9371L146.789 31.3148C147.087 31.3136 147.145 31.2537 147.143 30.9557C147.122 21.0815 147.079 11.2476 147.037 1.39429ZM146.467 30.2255C146.468 30.5429 146.389 30.6222 146.072 30.6236L3.10192 31.2396C2.74581 31.2411 2.70507 31.1221 2.70379 30.8241L2.66176 21.0707L2.64239 21.0707L2.60412 12.1874L2.62349 12.1874L2.58291 2.77065C2.58154 2.45328 2.66017 2.37248 2.97753 2.37111L145.948 1.7551C146.265 1.75373 146.344 1.81299 146.346 2.15122L146.467 30.2255Z" fill="white"/>
<path d="M101.406 3.8111C101.404 3.29557 101.404 3.29556 100.907 3.2977L5.14605 3.71031C5.00723 3.72134 4.86777 3.72194 4.72886 3.7121C4.51124 3.69367 4.45207 3.79376 4.45292 3.99193L4.48555 11.5655C4.47806 11.6336 4.4889 11.7024 4.51693 11.7649C4.54497 11.8274 4.58919 11.8813 4.64503 11.921C5.34167 12.4544 6.03839 13.0056 6.73801 13.5375C8.06258 14.5629 9.39902 15.5763 10.7325 16.5942C10.3776 16.8729 10.0614 17.1514 9.7243 17.4106C8.10402 18.6469 6.46437 19.8832 4.84409 21.1194C4.64661 21.2797 4.50723 21.4383 4.52937 21.7362C4.55916 24.1543 4.56967 26.5934 4.56073 29.0133C4.56235 29.3887 4.64183 29.5076 5.05754 29.5058C37.0574 29.3481 69.0643 29.2102 101.078 29.0921C101.455 29.0905 101.534 28.9918 101.532 28.6342C101.477 20.3872 101.442 12.0954 101.406 3.8111ZM18.1753 22.8664C17.4254 23.8024 16.3931 24.2032 15.246 24.2677C14.7887 24.2924 14.33 24.2679 13.8779 24.1946C12.7478 24.0401 11.6428 24.1834 10.5076 24.2285L10.1709 24.23L9.97186 24.0327C9.96159 23.9749 9.97447 23.9154 10.0077 23.867C10.041 23.8186 10.0919 23.7853 10.1495 23.7741L10.1883 23.774C10.4862 23.7533 10.8038 23.8101 11.0008 23.5321C11.2363 23.2137 11.2555 22.8173 11.2539 22.4403C11.2884 21.4686 11.3041 20.4971 11.3009 19.5256L11.2635 10.842C11.2624 10.5842 11.2403 10.3072 11.2198 10.0495C11.1771 9.47451 10.9183 9.21786 10.3442 9.1205L9.8865 9.06287C9.76879 9.06338 9.64942 9.02515 9.64883 8.88658C9.64823 8.74801 9.76708 8.66705 9.90565 8.66645L11.1349 8.66115C11.3718 8.66013 11.5909 8.68005 11.8293 8.67902L12.5222 8.67603C13.4936 8.67185 14.4854 8.54837 15.4576 8.70213C17.4406 8.99159 18.1476 10.5545 18.005 12.0422C17.9103 13.2346 17.3603 14.2263 16.5115 15.0421C16.2934 15.2412 16.255 15.3218 16.5715 15.4784C19.6121 17.0909 19.8471 20.7985 18.1708 22.8664M33.3688 8.98256C32.5975 9.10508 32.4579 9.22339 32.4225 9.99686C32.2928 12.0596 32.4 14.1019 32.3895 16.1642C32.3943 17.2742 32.399 18.3843 32.2444 19.495C32.078 20.646 31.7848 21.7573 31.0439 22.7126C29.8999 24.1644 28.3355 24.5481 26.569 24.3575C24.011 24.0914 22.9321 22.3304 22.5076 20.2909C22.335 19.4164 22.2513 18.5266 22.2578 17.6353L22.2284 10.8141C22.2275 10.6159 22.2266 10.3984 22.2064 10.2003C22.1433 9.38704 21.9038 9.15116 21.0913 9.03546C20.9124 9.01537 20.5955 9.13593 20.6344 8.81839C20.6733 8.50085 20.951 8.63972 21.1492 8.63886C22.5364 8.65225 23.9253 8.68501 25.3122 8.62092L25.649 8.63884L25.8093 8.83632L25.6506 9.01581L25.6119 9.01598C24.5611 9.27828 24.5417 9.27836 24.4868 10.3693C24.4514 11.1428 24.4546 11.8952 24.4773 12.6684C24.5062 14.869 24.3964 17.0509 24.5847 19.2508C24.6479 20.0835 24.7899 20.889 25.1909 21.6322C25.7706 22.6728 26.6254 23.2517 27.8544 23.2061C29.1236 23.1411 29.9133 22.4448 30.4047 21.3311C30.778 20.4773 30.8336 19.5413 30.849 18.6338C30.8655 17.9588 30.8626 17.2853 30.8598 16.6312L30.8343 10.7159C30.8366 10.524 30.8294 10.3321 30.8124 10.1409C30.7301 9.36941 30.5101 9.13195 29.717 9.03554L29.5187 9.01702C29.3802 9.01762 29.2414 8.97799 29.26 8.8006C29.2786 8.62321 29.3978 8.6212 29.5364 8.6206L29.6168 8.62026C30.8462 8.63433 32.0949 8.64832 33.3239 8.60428C33.4819 8.6036 33.7007 8.56243 33.7017 8.80083C33.722 8.99892 33.5043 8.95962 33.3643 8.98108M41.7334 23.1002C41.4581 23.4326 41.1189 23.7065 40.7359 23.9054C40.3528 24.1044 39.9337 24.2245 39.5034 24.2586C38.4535 24.3823 37.4177 24.3272 36.4297 23.9544C35.8535 23.72 35.7936 23.6413 35.7909 23.0259C35.8065 22.1319 35.8428 21.2377 35.8584 20.3436L35.8579 20.2304C35.917 20.1109 35.8563 19.8728 36.0755 19.8927C36.2946 19.9126 36.215 20.1096 36.2155 20.2288C36.2395 20.6458 36.3143 21.0583 36.4383 21.4571C36.6095 22.0434 36.9886 22.5472 37.5046 22.8741C38.0205 23.2011 38.6379 23.3287 39.2412 23.2331C40.2926 23.09 41.0615 22.0764 41.1142 20.8261C41.167 19.5757 40.6296 18.6677 39.7146 17.9385C38.9385 17.3071 38.1032 16.7534 37.4266 16.0248C36.1316 14.6029 35.7281 12.9388 36.2358 11.1128C36.6848 9.50467 38.1076 8.42275 39.773 8.32171C40.6112 8.28005 41.4508 8.36739 42.2624 8.58067C42.5399 8.65845 42.621 8.79816 42.6013 9.07538C42.5835 9.45243 42.6046 9.84869 42.6062 10.2257L42.5869 10.2257C42.5888 10.6817 42.6102 11.1375 42.5928 11.5935C42.5934 11.7321 42.6137 11.9496 42.3961 11.9505C42.1786 11.9514 42.2566 11.7336 42.2367 11.5951C42.133 10.7015 41.8122 9.91171 40.9389 9.53849C40.5599 9.36279 40.1396 9.29537 39.7245 9.3437C39.3095 9.39204 38.916 9.55424 38.5874 9.81236C37.5789 10.5707 37.5072 12.2562 38.4445 13.3026C38.9221 13.8354 39.5184 14.2501 40.0894 14.6633C41.1641 15.4514 42.1587 16.3203 42.5801 17.6326C43.2635 19.592 43.1329 21.4566 41.732 23.1091M50.0638 24.0641C49.7658 24.0653 49.4485 24.0861 49.1519 24.068C48.122 23.9935 47.0879 23.9979 46.0587 24.0813C45.8398 24.1016 45.6221 24.0832 45.4046 24.0841C45.266 24.0847 45.1467 24.045 45.1251 23.8872C45.1036 23.7293 45.2239 23.6483 45.3625 23.6477C45.6604 23.6271 45.9974 23.6852 46.1943 23.3864C46.3912 23.0875 46.4088 22.6911 46.4281 22.3155C46.4987 20.3782 46.4903 18.4293 46.4626 16.5043C46.435 14.5794 46.4461 12.6572 46.4169 10.7352C46.4159 10.4968 46.3955 10.2585 46.375 10.0008C46.3122 9.24863 46.1131 9.05132 45.3782 8.95465C45.2201 8.93596 45.0013 8.97565 45.0003 8.73874C44.9992 8.50183 45.2378 8.53954 45.3972 8.53885L49.5602 8.52092C49.7182 8.52024 49.937 8.47907 49.9381 8.71746C49.9391 8.95586 49.7407 8.89562 49.6022 8.91708C48.8294 9.03961 48.7093 9.1787 48.6544 9.93139C48.616 10.3488 48.5983 10.7452 48.6001 11.1609L48.6433 21.1885C48.6454 21.6653 48.6878 22.1613 48.7092 22.6365C48.7508 23.3098 49.0112 23.5665 49.6848 23.6038L50.0216 23.6023C50.181 23.6016 50.3985 23.6007 50.3995 23.8183C50.4004 24.0358 50.2217 24.0574 50.0638 24.0581M65.4943 8.82327C64.5236 9.02563 64.485 9.04665 64.3894 10.02C64.2755 11.2692 64.3614 12.5174 64.3265 13.7677C64.2806 16.9401 64.2555 20.0931 64.2289 23.2655L64.2305 23.641C64.1911 23.8393 64.2326 24.1177 63.9945 24.1977C63.7564 24.2777 63.5784 24.0997 63.4391 23.9424C63.0992 23.5475 62.7606 23.1317 62.4416 22.7368C59.8711 19.5756 57.2991 16.4144 54.9499 13.0735L54.7911 12.876C54.7967 14.1857 54.7814 15.4732 54.8078 16.7619C54.8541 18.5065 54.9212 20.2511 54.9689 21.9957C54.9722 22.25 55.0063 22.503 55.0705 22.7492C55.2117 23.3446 55.4315 23.5209 56.0663 23.5376L56.3241 23.5573C56.4419 23.5762 56.5821 23.5949 56.5828 23.7737C56.5836 23.9525 56.4437 23.9919 56.2858 23.9926C56.0474 23.9936 55.8299 24.0154 55.5914 23.9955C54.5406 23.9017 53.5054 23.9852 52.4625 24.009C52.303 24.0097 52.0665 24.0912 52.0444 23.8127C52.0224 23.5341 52.2818 23.5747 52.4605 23.5531C53.174 23.5113 53.3715 23.351 53.4088 22.655C53.5369 20.2362 53.5056 17.818 53.5354 15.3787C53.5661 13.1778 53.5759 10.9577 53.5858 8.75688L53.5851 8.59745C53.6247 8.43933 53.6236 8.20094 53.8216 8.15986C54.0196 8.11877 54.1396 8.29855 54.2385 8.43669C55.2155 9.72134 56.1866 11.006 57.1904 12.2891C59.1232 14.7601 61.0575 17.249 62.9517 19.759L63.0521 19.8778L63.1101 19.5006C63.0568 16.488 62.9843 13.474 62.9117 10.4615C62.9042 10.1952 62.8766 9.92984 62.8293 9.66768C62.7284 9.07211 62.4489 8.87663 61.7156 8.82019C61.5367 8.80159 61.26 8.90112 61.2588 8.62398C61.2576 8.34685 61.5351 8.42462 61.7332 8.42377C62.8836 8.43818 64.0534 8.47337 65.2034 8.40882L65.4418 8.40779L65.6601 8.58565C65.7399 8.76262 65.6417 8.80327 65.5017 8.82324M76.2023 21.11C76.1934 21.914 76.1241 22.7162 75.9951 23.5098C75.937 23.8676 75.7589 24.0264 75.3819 24.028C74.4506 24.0126 73.518 24.036 72.5864 23.9611C71.2568 23.8476 69.9042 23.913 68.5814 23.9977C68.4554 24.0014 68.3294 23.9955 68.2043 23.9799L68.0456 23.8018L68.1832 23.5628L68.3022 23.5236C69.2133 23.3408 69.332 23.2211 69.3472 22.2496C69.3821 21.1399 69.3972 20.0297 69.3924 18.9192L69.3568 10.6513C69.3556 10.3741 69.335 10.0956 69.313 9.81854C69.2717 9.22271 69.0113 8.96755 68.415 8.89115C68.2555 8.87098 68.0766 8.85238 67.9186 8.83369L67.7391 8.67503L67.8977 8.49555C68.0216 8.47254 68.1471 8.45905 68.273 8.45519C69.3445 8.48931 70.4145 8.52493 71.1683 8.50231L74.3808 8.48847C74.7651 8.49845 75.148 8.43615 75.5094 8.30481C75.7072 8.22498 75.8266 8.26321 75.7888 8.48241C75.6527 9.39488 75.6774 10.3067 75.5622 11.2191C75.5432 11.319 75.5231 11.477 75.365 11.4583C75.207 11.4396 75.2645 11.2993 75.2447 11.201C75.2474 11.0751 75.2404 10.9491 75.2237 10.8242C75.0817 10.0112 74.7632 9.75483 73.9494 9.69874C73.2355 9.66307 72.5216 9.62592 71.8079 9.62899C71.5904 9.62993 71.4908 9.68996 71.4919 9.92836L71.513 14.8259C71.5136 14.9839 71.5142 15.1239 71.7317 15.1021C72.645 15.0788 73.5762 15.0748 74.4879 15.0307C74.6364 15.0308 74.7827 14.9945 74.9139 14.9248C75.0451 14.8551 75.1571 14.7542 75.2401 14.6311L75.457 14.4707L75.558 14.7489C75.5012 15.4033 75.4444 16.0383 75.4069 16.6866C75.389 17.0234 75.3712 17.3796 75.3726 17.7178C75.3731 17.837 75.3335 17.9758 75.2143 17.9763C75.0564 17.977 75.0751 17.8174 75.0746 17.7191C74.9499 16.4308 74.8107 16.2928 73.5022 16.2359C72.9464 16.2174 72.4114 16.2003 71.8629 16.1625C71.6454 16.1634 71.5457 16.2041 71.5468 16.4618C71.5537 18.0487 71.5412 19.6535 71.5883 21.2401C71.6121 22.2711 72.0505 22.7058 73.1012 22.7609C73.517 22.7784 73.9148 22.7767 74.3305 22.7556C75.3017 22.6918 75.7157 22.2922 75.871 21.3409L75.9292 21.0039C75.9674 20.8845 75.9277 20.6656 76.126 20.705C76.2246 20.7642 76.2061 20.9625 76.2067 21.101M84.7001 22.9091C84.4248 23.2415 84.0856 23.5154 83.7026 23.7143C83.3195 23.9133 82.9004 24.0334 82.4701 24.0675C81.4212 24.2098 80.3534 24.099 79.3561 23.7442C78.9382 23.588 78.7196 23.3312 78.7562 22.8527C78.8119 21.9406 78.8081 21.0481 78.825 20.1361L78.8245 20.0184C78.8821 19.899 78.8229 19.6608 79.0406 19.6793C79.2195 19.6993 79.1801 19.8977 79.1806 20.0169C79.1952 20.4349 79.2703 20.8487 79.4034 21.2452C79.8066 22.4921 80.9197 23.201 82.2078 23.0211C83.2577 22.878 84.0266 21.863 84.0808 20.6141C84.1351 19.3653 83.5947 18.4557 82.6603 17.7252C81.8843 17.0938 81.049 16.5401 80.3724 15.8129C79.0969 14.4297 78.7129 12.8057 79.1596 10.9994C79.5504 9.37213 81.0518 8.196 82.7366 8.10977C83.5509 8.0721 84.3662 8.15545 85.156 8.35711C85.4737 8.43472 85.6128 8.57269 85.5756 8.90959C85.557 9.27942 85.5586 9.64998 85.5803 10.0196L85.5401 10.0198C85.5421 10.4757 85.5634 10.9316 85.546 11.3876C85.5465 11.5068 85.5669 11.7451 85.3494 11.7461C85.1318 11.747 85.2099 11.5291 85.1899 11.3891C85.0862 10.4956 84.7654 9.70577 83.8922 9.33405C83.5115 9.15411 83.0882 9.084 82.6698 9.1316C82.2515 9.17921 81.8547 9.34265 81.5242 9.60352C80.5172 10.3603 80.444 12.0458 81.3813 13.0937C81.8589 13.6266 82.4552 14.0397 83.0262 14.4545C84.1009 15.2425 85.0955 16.1099 85.5184 17.4238C86.2197 19.4025 86.0892 21.267 84.6883 22.9195M94.5817 22.8561C94.3054 23.1972 93.9634 23.4793 93.576 23.6857C93.1886 23.8922 92.7637 24.0187 92.3265 24.0578C91.2788 24.1961 90.2132 24.0822 89.2184 23.7255C88.802 23.5693 88.5819 23.3125 88.6186 22.8341C88.6742 21.9219 88.6704 21.0294 88.7067 20.1174L88.7254 19.9579C88.7844 19.8384 88.7434 19.6404 88.9416 19.659C89.1011 19.6776 89.081 19.8357 89.0816 19.9757C89.0973 20.4064 89.1728 20.8329 89.306 21.2428C89.7078 22.4897 90.8209 23.2001 92.109 23.0187C93.1514 22.8756 93.9277 21.8606 93.982 20.6117C94.0362 19.3628 93.4973 18.4518 92.5615 17.7227C91.7854 17.0913 90.9516 16.5377 90.2735 15.809C88.998 14.4273 88.6215 12.8033 89.0607 10.997C89.4501 9.3697 90.9514 8.19208 92.6362 8.10585C93.4524 8.06911 94.2696 8.15244 95.0616 8.35318C95.3599 8.43086 95.5184 8.57024 95.4797 8.90715C95.4611 9.27698 95.4627 9.64754 95.4844 10.0172L95.4442 10.0174C95.4462 10.4733 95.469 10.9291 95.4501 11.3852C95.4507 11.5237 95.4725 11.7427 95.2535 11.7436C95.0344 11.7446 95.114 11.5252 95.094 11.3867C94.9903 10.4931 94.6695 9.70333 93.7963 9.33012C93.4202 9.15287 93.0021 9.08404 92.5891 9.13136C92.176 9.17868 91.7844 9.34026 91.4581 9.59796C90.4497 10.3563 90.3779 12.0418 91.3137 13.0882C91.7928 13.6211 92.3891 14.0357 92.966 14.4489C94.0392 15.2176 95.0144 16.0865 95.4565 17.3735C96.0996 19.3078 95.9885 21.1782 94.5861 22.8486" fill="#F23204"/>
<path d="M144.665 3.10918L102.732 3.28985C102.236 3.29199 102.236 3.29199 102.238 3.78816L102.345 28.586C102.347 29.0807 102.347 29.0807 102.844 29.0785L144.796 28.8978C145.292 28.8956 145.292 28.8956 145.29 28.401L145.183 3.64335C145.2 3.10688 145.2 3.10687 144.665 3.10918ZM112.04 23.8701C110.713 24.0546 109.383 23.8815 108.075 23.7679C107.454 23.7319 106.831 23.7346 106.211 23.776C105.874 23.7983 105.516 23.7998 105.18 23.8206C105.022 23.8213 104.862 23.822 104.861 23.6045C104.86 23.3869 105.02 23.3848 105.158 23.3842C105.991 23.3999 106.108 23.0433 106.164 22.2698C106.22 21.4962 106.238 20.7422 106.234 19.9689L106.191 9.97703C106.147 9.04597 105.869 8.74916 104.957 8.69349L104.718 8.67515L104.519 8.47783C104.519 8.35863 104.617 8.29861 104.716 8.27881L105.053 8.25651C106.084 8.23269 107.116 8.36682 108.206 8.26378C109.712 8.25729 111.299 8.15062 112.846 8.40172C115.381 8.82738 117.037 10.2864 117.761 12.7418C118.627 15.5944 118.401 18.3713 116.825 20.9543C115.742 22.7247 114.041 23.5649 112.04 23.8701ZM131.588 23.6875C130.38 23.6927 129.17 23.7366 127.96 23.6435C127.84 23.6232 127.662 23.7044 127.603 23.5065C127.544 23.3086 127.721 23.3063 127.819 23.2478C127.887 23.2097 127.937 23.1468 127.959 23.0724C127.981 22.9981 127.973 22.9181 127.937 22.8494C127.515 21.4641 127.073 20.0788 126.65 18.7113C126.641 18.6781 126.627 18.647 126.606 18.6198C126.585 18.5927 126.559 18.5702 126.529 18.5536C126.499 18.5371 126.466 18.5269 126.432 18.5238C126.398 18.5206 126.364 18.5246 126.331 18.5353L122.744 18.5508C122.586 18.5515 122.486 18.5713 122.427 18.7503C122.076 19.9602 121.604 21.1379 121.373 22.3622C121.256 22.9587 121.356 23.3933 122.122 23.3111C122.281 23.291 122.479 23.2902 122.481 23.5479C122.482 23.8057 122.283 23.7663 122.124 23.767C120.931 23.6738 119.725 23.7386 118.536 23.7825C118.377 23.7831 118.178 23.8049 118.177 23.5665C118.177 23.3683 118.336 23.3274 118.494 23.3267C119.227 23.3638 119.662 22.9447 119.897 22.3104C120.289 21.2374 120.641 20.1452 121.013 19.0738C122.19 15.5389 123.381 12.0247 124.557 8.48984C124.635 8.2511 124.674 7.93505 124.97 7.91291C125.307 7.89209 125.348 8.24803 125.428 8.48608C126.854 12.6237 128.259 16.742 129.685 20.8796C129.869 21.4754 130.125 22.0467 130.446 22.5809C130.726 23.0371 131.084 23.2933 131.641 23.27C131.801 23.2694 132.018 23.2491 132 23.4875C131.941 23.7053 131.743 23.6868 131.584 23.6875M142.138 8.51392C141.839 8.54841 141.553 8.65552 141.304 8.82593C141.056 8.99633 140.854 9.22485 140.714 9.49154C139.652 11.2409 138.827 13.0876 137.962 14.936C137.628 15.6303 137.254 16.3262 137.198 17.1192C137.18 17.4366 137.162 17.7541 137.163 18.0714C137.189 19.46 137.116 20.8475 137.241 22.2357C137.304 22.9491 137.562 23.1849 138.288 23.222C138.44 23.2182 138.593 23.224 138.744 23.2394C138.883 23.2582 139.002 23.3173 139.003 23.4767C138.992 23.5392 138.956 23.5949 138.905 23.632C138.853 23.6692 138.79 23.685 138.727 23.6761C138.309 23.6779 137.913 23.699 137.497 23.662C136.347 23.5478 135.197 23.6719 134.047 23.6963L133.749 23.6975L133.55 23.5002L133.726 23.2804L133.945 23.2601C134.579 23.2186 134.816 23.0195 134.853 22.3846C134.946 20.699 134.996 19.0135 134.851 17.3483C134.791 16.8251 134.627 16.3192 134.369 15.8604C133.449 14.0406 132.529 12.1999 131.589 10.3802C131.4 10.0057 131.18 9.6482 130.93 9.31169C130.8 9.12018 130.633 8.95693 130.438 8.83178C130.244 8.70664 130.026 8.62217 129.798 8.58348C129.659 8.56471 129.519 8.54445 129.539 8.36705C129.559 8.18965 129.696 8.16821 129.855 8.16752C131.164 8.20062 132.453 8.19507 133.761 8.15069C133.88 8.15018 134.038 8.1495 134.059 8.30735C134.081 8.4652 133.941 8.5254 133.822 8.54677C133.486 8.62719 133.427 8.86585 133.527 9.16193L133.628 9.4595C134.568 11.4968 135.488 13.5162 136.469 15.6323C137.313 13.4875 138.388 11.5801 139.06 9.47483C139.237 8.90041 139.177 8.80084 138.639 8.50515L138.499 8.26884L138.697 8.12942L138.816 8.12891C139.926 8.18224 141.038 8.15808 142.148 8.11455C142.286 8.11396 142.425 8.11336 142.446 8.27121C142.428 8.45009 142.289 8.48943 142.13 8.51097" fill="black"/>
<path d="M65.4986 8.44774L65.2617 8.44876C64.1117 8.51182 62.9419 8.47812 61.7915 8.46371C61.6127 8.46448 61.3353 8.40607 61.3171 8.66392C61.2988 8.92178 61.595 8.84004 61.7739 8.86013C62.5072 8.91657 62.7852 9.11355 62.8876 9.70762C62.9349 9.96929 62.9625 10.2341 62.97 10.5C63.0426 13.5139 63.1151 16.5264 63.1683 19.5211L63.1103 19.8969L63.01 19.7796C61.1158 17.2696 59.1814 14.7792 57.2487 12.3096C56.2509 11.0444 55.2738 9.74043 54.2967 8.45577C54.1978 8.31763 54.0778 8.13934 53.8798 8.18043C53.6818 8.22151 53.6829 8.45842 53.6433 8.61653L53.644 8.77596C53.6341 10.9768 53.6243 13.1969 53.5936 15.3978C53.5638 17.8177 53.6144 20.2358 53.4655 22.6756C53.4297 23.3701 53.2323 23.5482 52.5188 23.5915C52.34 23.5923 52.0821 23.5532 52.1027 23.8511C52.1234 24.149 52.3613 24.0482 52.5208 24.0475C53.5637 24.0236 54.6063 23.9387 55.6497 24.034C55.8689 24.0524 56.1057 24.032 56.3441 24.031C56.502 24.0303 56.6419 23.9895 56.6411 23.8122C56.6404 23.6349 56.5017 23.6131 56.3839 23.5943L56.1261 23.576C55.5105 23.5384 55.2714 23.3621 55.1303 22.7876C55.0661 22.5415 55.0319 22.2884 55.0287 22.0341C54.9616 20.2896 54.8945 18.5451 54.8676 16.8004C54.8412 15.5116 54.8564 14.2033 54.8509 12.9145L55.0097 13.112C57.3633 16.4335 59.9353 19.5947 62.5014 22.7752C62.8205 23.1895 63.159 23.5844 63.4989 23.9808C63.6382 24.1381 63.8162 24.3162 64.0543 24.2362C64.2924 24.1562 64.2718 23.8776 64.2903 23.6794C64.2994 23.5539 64.2989 23.4279 64.2887 23.3024C64.3137 20.1301 64.3404 16.9771 64.3863 13.8047C64.4003 12.556 64.316 11.3077 64.4298 10.0571C64.5239 9.08519 64.5642 9.08502 65.5347 8.86031C65.6538 8.84043 65.7519 8.78041 65.7513 8.64184L65.4986 8.44774Z" fill="white"/>
<path d="M16.5596 15.4979C16.2609 15.3413 16.2814 15.2622 16.4981 15.0631C17.3469 14.2459 17.8984 13.2527 17.9931 12.0618C18.1043 10.5713 17.4241 9.01117 15.4456 8.72169C14.4736 8.58731 13.4832 8.71078 12.5117 8.69559L11.8084 8.69862C11.5715 8.69964 11.3524 8.68122 11.114 8.68224L9.88476 8.68754C9.7462 8.68814 9.62725 8.74676 9.62793 8.90619C9.62862 9.06562 9.7479 9.08447 9.8671 9.08396C10.0203 9.09279 10.1727 9.11205 10.3233 9.14159C10.8988 9.21809 11.1384 9.4942 11.2004 10.0691C11.2209 10.3268 11.2415 10.6038 11.2426 10.8616C11.2551 13.7566 11.2884 16.6516 11.28 19.5467C11.2842 20.5182 11.2496 21.4839 11.233 22.4614C11.2152 22.8369 11.2169 23.2348 10.9799 23.5532C10.7829 23.8312 10.4653 23.7729 10.1689 23.7936L10.1287 23.7937C10.0096 23.8345 9.93092 23.8944 9.95097 24.0523L10.1515 24.2496L10.4882 24.2481C11.6175 24.2239 12.7224 24.0597 13.8391 24.2143C14.2922 24.278 14.75 24.3024 15.2073 24.2874C16.3766 24.2034 17.3851 23.8027 18.1351 22.8876C19.8515 20.7942 19.6165 17.091 16.5566 15.498M13.7761 9.59756C14.4895 9.51552 15.1176 9.71099 15.5032 10.3232C16.3224 11.6294 16.4669 13.016 15.7787 14.427C15.4256 15.1422 14.2173 15.5036 13.5021 15.1699C13.323 15.0917 13.3626 14.953 13.362 14.8144L13.3516 12.3991C13.3483 11.6258 13.3642 10.8331 13.3415 10.0598C13.3402 9.74248 13.4783 9.64355 13.7761 9.60203M16.7241 22.2187C16.1336 23.4907 14.7076 23.4775 13.8964 22.9848C13.7844 22.9138 13.6902 22.8181 13.621 22.705C13.5518 22.5919 13.5095 22.4644 13.4972 22.3324C13.4293 21.9265 13.4011 21.5149 13.413 21.1035L13.3933 16.5427C13.392 16.2253 13.4915 16.1653 13.7879 16.1446C14.8589 16.061 15.6135 16.554 16.1923 17.4038C16.8116 18.313 17.0543 19.3028 17.1168 20.3336C17.0617 21.0282 17.0047 21.6423 16.7286 22.2187" fill="white"/>
<path d="M33.3398 8.58636C32.1107 8.6304 30.862 8.61641 29.6327 8.60234L29.5537 8.60268C29.4137 8.60328 29.2752 8.62324 29.2759 8.80204C29.2767 8.98084 29.396 8.9997 29.5346 8.9991L29.7328 9.01762C30.5274 9.11403 30.746 9.34999 30.8283 10.123C30.8465 10.3141 30.8542 10.506 30.8516 10.698L30.8771 16.6058C30.88 17.2808 30.8829 17.9542 30.8648 18.6084C30.8494 19.5219 30.7938 20.4534 30.4205 21.3073C29.95 22.4194 29.1394 23.1172 27.8717 23.1823C26.6427 23.2472 25.7834 22.6563 25.2082 21.6069C24.8073 20.8755 24.6652 20.0626 24.602 19.2255C24.4346 17.0254 24.5444 14.8436 24.4946 12.643C24.4913 11.8697 24.4687 11.1159 24.525 10.3423C24.5799 9.2514 24.5992 9.25132 25.6486 8.98903L25.6888 8.98885L25.846 8.81086L25.6873 8.63275L25.3504 8.61483C23.962 8.67892 22.5747 8.64616 21.1859 8.63277C21.0071 8.63354 20.7101 8.51562 20.6712 8.8123C20.6322 9.10898 20.97 9.00918 21.128 9.02936C21.9421 9.14506 22.1815 9.38094 22.2431 10.1942C22.2614 10.3983 22.2692 10.6031 22.2666 10.808L22.296 17.6292C22.2881 18.5213 22.3698 19.412 22.5399 20.2878C22.9659 22.3273 24.0239 24.0884 26.6028 24.3544C28.3678 24.545 29.9128 24.1613 31.0762 22.7095C31.8261 21.7735 32.0985 20.6623 32.2722 19.4919C32.4254 18.3812 32.4206 17.2711 32.4158 16.1611C32.4278 14.0989 32.34 12.0564 32.4488 9.9938C32.4857 9.22032 32.6238 9.09904 33.3966 8.97948C33.5351 8.95803 33.7543 8.99731 33.7533 8.77977C33.6927 8.54163 33.4946 8.56186 33.3353 8.5834" fill="white"/>
<path d="M76.0599 20.7544C75.8615 20.715 75.9027 20.9324 75.863 21.0533L75.8049 21.3903C75.651 22.343 75.2355 22.7412 74.2643 22.805C73.8487 22.8261 73.4509 22.8278 73.0351 22.8102C72.0038 22.7551 71.543 22.3205 71.5221 21.291C71.4944 19.7043 71.5084 18.098 71.4807 16.5127C71.4796 16.2549 71.5986 16.2142 71.7968 16.2133C72.3526 16.2303 72.8877 16.2682 73.4435 16.2852C74.7326 16.3199 74.8911 16.4578 75.0159 17.7684C75.0165 17.8876 74.9977 18.0263 75.1556 18.0256C75.3136 18.0249 75.3144 17.867 75.3139 17.7672C75.3319 17.4303 75.3303 17.0742 75.3482 16.7359C75.3856 16.0816 75.4425 15.4467 75.4993 14.7983L75.3983 14.5215L75.1814 14.6804C75.0985 14.8038 74.9865 14.9049 74.8554 14.9748C74.7242 15.0447 74.5779 15.0814 74.4292 15.0815C73.5175 15.1242 72.5863 15.1282 71.6745 15.1515C71.4748 15.1523 71.4549 15.0139 71.4543 14.8753L71.4331 9.96727C71.4321 9.73036 71.5108 9.66893 71.7492 9.66791C72.4629 9.66483 73.1768 9.7005 73.8906 9.73765C74.7238 9.79366 75.0229 10.0501 75.165 10.8631C75.1816 10.9875 75.1886 11.113 75.186 11.2385C75.1864 11.3383 75.1676 11.477 75.3063 11.4957C75.4449 11.5145 75.4845 11.3564 75.5034 11.258C75.6187 10.3456 75.5745 9.43388 75.73 8.51984C75.7678 8.30213 75.6485 8.26241 75.4506 8.34373C75.0891 8.47456 74.7063 8.53636 74.322 8.5259L71.1096 8.53974C70.3572 8.56385 69.2858 8.52823 68.2143 8.49262C68.0883 8.49698 67.9628 8.51097 67.839 8.53446L67.6803 8.71395L67.8598 8.87112C68.0178 8.8913 68.1967 8.9099 68.3562 8.92858C68.9527 9.02584 69.21 9.26165 69.2542 9.85746C69.2763 10.1345 69.2969 10.4116 69.2981 10.6902C69.3099 13.4452 69.3412 16.2031 69.353 18.9565C69.3578 20.0681 69.3239 21.1783 69.3078 22.2884C69.2926 23.26 69.1739 23.3797 68.2628 23.5609L68.1437 23.5823L68.0002 23.8168L68.1604 23.995C68.2848 24.0118 68.4105 24.0182 68.536 24.0142C69.884 23.9279 71.2173 23.8626 72.541 23.9761C73.474 24.051 74.4052 24.0276 75.338 24.043C75.7135 24.0414 75.8916 23.8827 75.9496 23.5248C76.0882 22.7324 76.1576 21.9294 76.1569 21.125C76.1964 20.9669 76.2149 20.7686 76.0569 20.75" fill="white"/>
<path d="M92.9449 14.4361C92.3694 14.0228 91.7716 13.6082 91.3 13.0753C90.3642 12.0289 90.4166 10.3435 91.4429 9.58511C91.7728 9.32652 92.168 9.16455 92.5845 9.11725C93.001 9.06994 93.4224 9.13915 93.8019 9.31717C94.6752 9.69038 94.999 10.4817 95.0996 11.3738C95.1196 11.5122 95.0416 11.7301 95.2591 11.7292C95.4767 11.7282 95.437 11.5109 95.4558 11.3722C95.4747 10.9162 95.4518 10.4604 95.4499 10.0044L95.4901 10.0042C95.4885 9.62728 95.4676 9.26977 95.4853 8.89272C95.5241 8.55581 95.3834 8.41784 95.0672 8.34023C94.2768 8.13929 93.4611 8.05594 92.6464 8.09289C90.9422 8.1792 89.4602 9.35525 89.0709 10.9825C88.6227 12.7889 89.0052 14.4098 90.2836 15.796C90.9617 16.5262 91.7956 17.0977 92.5716 17.7098C93.5075 18.4507 94.0464 19.3678 93.9921 20.5972C93.9378 21.8267 93.1689 22.8611 92.1191 23.0042C91.515 23.1065 90.8945 22.9817 90.377 22.6538C89.8595 22.3259 89.4816 21.8182 89.3162 21.2283C89.183 20.8179 89.1074 20.391 89.0917 19.9598C89.0911 19.8406 89.1112 19.6617 88.9517 19.643C88.7535 19.6245 88.7737 19.8226 88.7355 19.9419L88.7168 20.1C88.6999 21.0119 88.6843 21.9045 88.6287 22.8166C88.5905 23.2936 88.8106 23.5504 89.2285 23.7081C90.2418 24.0807 91.2925 24.1357 92.3425 24.0314C92.7823 23.9906 93.2097 23.8634 93.6002 23.6572C93.9908 23.4509 94.3368 23.1697 94.6186 22.8296C95.9986 21.1578 96.1291 19.2932 95.4472 17.3338C94.9858 16.0663 94.0105 15.1988 92.9553 14.4301" fill="white"/>
<path d="M83.0513 14.4782C82.4759 14.065 81.8781 13.6503 81.4064 13.1175C80.4707 12.071 80.5424 10.3855 81.5493 9.62724C81.8792 9.36864 82.2744 9.20668 82.6909 9.15938C83.1074 9.11207 83.5289 9.18128 83.9084 9.3593C84.7816 9.73251 85.1054 10.5238 85.2061 11.4159C85.226 11.5544 85.148 11.7723 85.3655 11.7713C85.5831 11.7704 85.5433 11.5336 85.5622 11.4144C85.5811 10.9583 85.5582 10.5025 85.5563 10.0465L85.5965 10.0464C85.5949 9.6694 85.574 9.31189 85.5917 8.93484C85.6305 8.59793 85.4913 8.45996 85.1736 8.38236C84.3832 8.18141 83.5675 8.09807 82.7528 8.13502C81.0486 8.22133 79.5665 9.37801 79.1773 11.0247C78.7291 12.831 79.1325 14.4519 80.39 15.8381C81.0682 16.5683 81.902 17.1205 82.678 17.7519C83.6139 18.4929 84.1528 19.4099 84.0985 20.6394C84.0442 21.8689 83.2753 22.9033 82.2255 23.0464C81.6215 23.1487 81.0009 23.0239 80.4834 22.696C79.9659 22.3681 79.5881 21.8603 79.4226 21.2704C79.2959 20.8723 79.2176 20.4605 79.1893 20.0437C79.1887 19.9051 79.2282 19.7261 79.0493 19.7075C78.8317 19.6876 78.8714 19.9258 78.8332 20.0452L78.8337 20.1644C78.8183 21.0763 78.8013 21.9689 78.7665 22.881C78.7283 23.3565 78.9469 23.6133 79.3663 23.7724C80.3782 24.145 81.4303 24.2001 82.4803 24.0972C83.3459 24.0143 84.1455 23.5984 84.7104 22.9373C86.1098 21.2848 86.2419 19.4217 85.5808 17.4607C85.1191 16.1351 84.1439 15.2662 83.0498 14.4782" fill="white"/>
<path d="M40.0879 14.6638C39.511 14.2506 38.9147 13.8359 38.443 13.303C37.5058 12.2566 37.5775 10.5711 38.5859 9.81281C38.9158 9.55422 39.311 9.39226 39.7275 9.34495C40.144 9.29765 40.5655 9.36685 40.945 9.54487C41.8182 9.91809 42.142 10.7094 42.2427 11.6015C42.2627 11.7399 42.1846 11.9578 42.4022 11.9569C42.6197 11.956 42.5799 11.7192 42.5988 11.5999C42.6162 11.1439 42.5949 10.6881 42.5929 10.2321L42.6331 10.2319C42.6315 9.85498 42.6089 9.45873 42.6282 9.08168C42.6394 9.02676 42.6393 8.97015 42.6282 8.91523C42.617 8.86031 42.5948 8.80821 42.5631 8.76204C42.5313 8.71587 42.4905 8.67657 42.4433 8.64649C42.396 8.61641 42.3431 8.59617 42.2878 8.58697C41.4757 8.35964 40.6312 8.2696 39.7894 8.32059C38.9809 8.35356 38.2034 8.64123 37.5681 9.14251C36.9329 9.64378 36.4723 10.333 36.2522 11.1117C35.7446 12.9571 36.1481 14.6018 37.443 16.0236C38.1198 16.7732 38.955 17.306 39.731 17.9374C40.667 18.6784 41.2058 19.5954 41.1321 20.825C41.0585 22.0545 40.309 23.0889 39.2591 23.232C38.6549 23.3343 38.0342 23.2096 37.5164 22.8817C36.9987 22.5538 36.6205 22.046 36.4547 21.456C36.3314 21.057 36.2566 20.6446 36.2319 20.2277C36.2313 20.0891 36.2708 19.9102 36.0725 19.8917C35.8743 19.8731 35.914 20.1099 35.8549 20.2293L35.8554 20.3485C35.8399 21.2426 35.8035 22.1368 35.788 23.0309C35.7713 23.6463 35.8313 23.7444 36.4268 23.9594C37.4193 24.3529 38.4506 24.3872 39.5005 24.2635C40.3662 24.1822 41.1662 23.7666 41.7305 23.1051C43.1315 21.4526 43.262 19.588 42.6009 17.6091C42.1587 16.3222 41.1834 15.4339 40.0894 14.6653" fill="white"/>
<path d="M50.0394 23.596L49.7026 23.5974C49.029 23.5601 48.7701 23.3034 48.727 22.6301C48.6862 22.155 48.6632 21.6589 48.6611 21.1821L48.6179 11.156C48.6161 10.7403 48.6353 10.3439 48.6722 9.92652C48.7285 9.15296 48.8472 9.03176 49.62 8.9122C49.7585 8.89075 49.9762 8.93004 49.9559 8.71258C49.9356 8.49513 49.7375 8.51535 49.5781 8.51604L45.415 8.53398C45.2556 8.53466 45.038 8.51474 45.0196 8.73385C45.0011 8.95296 45.2379 8.93109 45.3975 8.94977C46.131 9.04644 46.3301 9.26312 46.3928 9.99594C46.4132 10.2343 46.4351 10.4726 46.4362 10.7303C46.4445 12.6524 46.4722 14.5759 46.4804 16.4995C46.4887 18.423 46.5166 20.3853 46.4459 22.3107C46.4281 22.6862 46.4297 23.0558 46.2121 23.3815C45.9945 23.7073 45.6782 23.6222 45.3803 23.6429C45.2418 23.6628 45.1229 23.723 45.1444 23.8823C45.166 24.0416 45.2838 24.0799 45.4224 24.0793C45.6399 24.0783 45.8591 24.0967 46.0765 24.0764C47.1057 23.993 48.1398 23.9886 49.1697 24.0631C49.4678 24.0812 49.7836 24.0605 50.0816 24.0592C50.2604 24.0584 50.4393 24.077 50.4383 23.8401C50.4372 23.6032 50.2182 23.6026 50.0394 23.6034" fill="white"/>
<path d="M117.761 12.7417C117.037 10.3072 115.385 8.82727 112.846 8.40164C111.277 8.15062 109.716 8.25718 108.205 8.26369C107.115 8.36673 106.083 8.2326 105.052 8.25642L104.716 8.27872C104.616 8.29852 104.518 8.33769 104.518 8.45689L104.717 8.6542L104.956 8.67403C105.888 8.74899 106.166 9.04579 106.191 9.95757L106.234 19.9494C106.237 20.7227 106.22 21.4767 106.163 22.2503C106.107 23.0239 105.991 23.3805 105.158 23.3647C105.019 23.3653 104.86 23.4047 104.861 23.5835C104.862 23.8025 105.021 23.8212 105.179 23.8012C105.516 23.7997 105.873 23.7773 106.21 23.7565C106.83 23.7136 107.453 23.7109 108.074 23.7485C109.402 23.8426 110.712 24.0351 112.039 23.8506C114.041 23.5648 115.742 22.7246 116.825 20.9349C118.4 18.3712 118.606 15.5944 117.761 12.7358M115.26 20.143C114.613 21.8503 113.249 22.7085 111.445 22.8414C110.834 22.9079 110.216 22.8636 109.621 22.7107C108.846 22.4757 108.587 22.1192 108.524 21.3074C108.397 19.4246 108.448 17.541 108.444 16.5099L108.416 10.0836C108.413 9.48758 108.511 9.36945 109.107 9.30728C112.099 9.03662 114.583 10.4936 115.409 13.3449C116.073 15.6411 116.102 17.9207 115.26 20.1459" fill="#FCFDFF"/>
<path d="M131.586 23.2454C131.051 23.2671 130.673 23.011 130.391 22.5563C130.077 22.018 129.822 21.4476 129.63 20.855C128.205 16.7174 126.799 12.5991 125.373 8.46148C125.293 8.22342 125.253 7.86599 124.915 7.88831C124.617 7.90896 124.579 8.2265 124.501 8.46524C123.325 11.9987 122.133 15.5143 120.958 19.0477C120.587 20.14 120.234 21.2128 119.842 22.2843C119.606 22.9201 119.192 23.3301 118.438 23.3021C118.28 23.2834 118.121 23.3228 118.122 23.5419C118.123 23.7609 118.321 23.7585 118.481 23.7579C119.672 23.7125 120.879 23.6477 122.068 23.7424C122.228 23.7611 122.426 23.7811 122.425 23.5233C122.424 23.2655 122.226 23.2858 122.066 23.2865C121.293 23.3494 121.193 22.9326 121.317 22.3376C121.57 21.1072 122.04 19.9355 122.372 18.7242C122.43 18.5467 122.53 18.5254 122.688 18.5247L126.278 18.5092C126.435 18.5085 126.555 18.5289 126.594 18.6867C127.017 20.0735 127.46 21.4588 127.881 22.8248C127.91 22.8944 127.914 22.9718 127.893 23.044C127.871 23.1162 127.826 23.1789 127.764 23.2217C127.666 23.2817 127.507 23.3226 127.548 23.4804C127.587 23.6784 127.766 23.618 127.904 23.6174C129.115 23.712 130.324 23.6666 131.533 23.6614C131.692 23.6607 131.89 23.6807 131.909 23.4422C131.967 23.2244 131.769 23.2447 131.59 23.2454M125.617 17.3633L123.099 17.3741C122.981 17.3746 122.801 17.4335 122.881 17.1754C123.429 15.4491 123.956 13.7437 124.524 11.8951C125.046 13.5975 125.55 15.2015 126.051 16.8056C126.213 17.3607 126.213 17.3607 125.617 17.3633Z" fill="#FCFDFF"/>
<path d="M142.109 8.11803C140.999 8.16155 139.889 8.18571 138.779 8.13238L138.66 8.13289L138.462 8.27231L138.602 8.50862C139.138 8.80432 139.218 8.90381 139.022 9.47831C138.357 11.5836 137.275 13.491 136.432 15.6358C135.451 13.5197 134.51 11.481 133.589 9.46297L133.49 9.1654C133.388 8.86783 133.447 8.65004 133.785 8.55024C133.904 8.5095 134.042 8.46867 134.022 8.31082C134.002 8.15296 133.864 8.1327 133.724 8.15416C132.416 8.19854 131.127 8.20409 129.818 8.17099C129.68 8.17159 129.52 8.17227 129.502 8.37052C129.503 8.52846 129.641 8.54724 129.761 8.58695C129.989 8.62668 130.206 8.71156 130.401 8.83661C130.596 8.96166 130.764 9.12435 130.895 9.31515C131.151 9.64735 131.372 10.0055 131.553 10.3836C132.473 12.2034 133.412 14.0232 134.332 15.8639C134.582 16.3265 134.745 16.8307 134.815 17.3518C134.944 19.028 134.945 20.7117 134.816 22.388C134.78 23.0423 134.543 23.2221 133.908 23.2636L133.69 23.2839L133.513 23.5037L133.71 23.698L134.008 23.6968C135.158 23.6724 136.307 23.5676 137.457 23.6625C137.854 23.6996 138.271 23.6784 138.687 23.6766C138.75 23.6855 138.813 23.6697 138.865 23.6325C138.916 23.5954 138.952 23.5397 138.963 23.4772C138.983 23.3177 138.844 23.2587 138.704 23.2399C138.553 23.2244 138.4 23.2186 138.248 23.2225C137.515 23.1855 137.276 22.969 137.193 22.2362C137.068 20.8481 137.143 19.4606 137.116 18.072C137.115 17.7546 137.134 17.4372 137.152 17.1197C137.228 16.3267 137.602 15.6278 137.916 14.9365C138.78 13.0882 139.605 11.2415 140.668 9.49207C140.816 9.23202 141.021 9.00891 141.268 8.83956C141.514 8.67021 141.796 8.55905 142.092 8.51445C142.249 8.49291 142.389 8.45357 142.368 8.27486C142.407 8.09589 142.248 8.09657 142.109 8.11803Z" fill="#FCFDFF"/>
<path d="M13.7639 16.1637C13.466 16.1858 13.3679 16.2459 13.3693 16.5632C13.3952 18.0889 13.3823 19.5954 13.3889 21.1226C13.3776 21.534 13.4058 21.9455 13.4732 22.3515C13.534 22.6284 13.6333 22.8663 13.8723 23.0039C14.688 23.4965 16.1095 23.5098 16.7001 22.2392C16.9747 21.6629 17.0525 21.0457 17.069 20.3736C17.0424 19.3291 16.7219 18.3132 16.1445 17.4423C15.585 16.5731 14.8304 16.0801 13.7549 16.1637" fill="#F23204"/>
<path d="M13.3712 12.4196L13.3816 14.8379C13.3822 14.9764 13.344 15.1152 13.5217 15.1934C14.2369 15.5285 15.4452 15.1657 15.7997 14.4505C16.4671 13.0395 16.3419 11.6529 15.5243 10.3482C15.1446 9.73443 14.5091 9.539 13.7957 9.62104C13.4785 9.66264 13.3597 9.76149 13.3612 10.0997C13.3838 10.8521 13.3678 11.6463 13.3712 12.4196Z" fill="#F23204"/>
<path d="M109.103 9.33584C108.507 9.39801 108.409 9.51763 108.412 10.1121L108.439 16.5355C108.463 17.5471 108.392 19.4501 108.52 21.3345C108.562 22.1463 108.842 22.5027 109.617 22.7363C110.213 22.9319 110.826 22.9099 111.441 22.8685C113.245 22.7415 114.609 21.8834 115.256 20.17C116.098 17.9463 116.069 15.6458 115.405 13.3883C114.581 10.5162 112.095 9.05922 109.103 9.33584Z" fill="black"/>
<path d="M124.519 11.9009C123.952 13.7272 123.425 15.4549 122.876 17.1812C122.798 17.4601 122.977 17.3804 123.095 17.3799L125.613 17.3691C126.209 17.3665 126.209 17.3665 126.027 16.8115C125.545 15.2073 125.042 13.6033 124.516 11.901" fill="black"/>
</g>
<defs>
<clipPath id="clip0_1482_19444">
<rect width="147" height="31" fill="white" transform="translate(0.958984 1.30469) rotate(-0.246869)"/>
</clipPath>
</defs>
</svg>
