<svg width="100" height="85" viewBox="0 0 100 85" fill="none" xmlns="http://www.w3.org/2000/svg">
<rect x="0.327148" y="0.267578" width="141.672" height="87.9052" rx="6.82759" fill="white"/>
<path d="M51.603 65.9058H49.5537L49.5801 64.9211V58.7682C49.5772 58.4918 49.5595 58.2157 49.5272 57.9412C49.514 57.8101 49.485 57.6812 49.441 57.557C49.3879 57.4532 49.3263 57.3539 49.2568 57.2602L49.3627 56.9782H51.6316L54.1323 56.9385C54.2894 57.1723 54.3842 57.4424 54.4075 57.7232C54.4375 58.0085 54.4024 58.2969 54.3048 58.5666H53.9931C53.9529 58.374 53.8048 58.21 53.5487 58.0745C53.2968 57.94 53.018 57.8637 52.7327 57.8512L51.5385 57.7983C51.4806 58.8312 51.4519 59.8574 51.4522 60.8769H53.1502C53.2871 60.8769 53.3929 60.8747 53.4677 60.8705C53.5622 60.8614 53.655 60.8393 53.7434 60.8049C53.8464 60.7686 53.9403 60.7102 54.0185 60.634C54.0477 60.7854 54.0632 60.9391 54.0646 61.0933C54.0646 61.6492 53.6511 61.9272 52.8243 61.9272C52.656 61.9272 52.4172 61.9228 52.1078 61.914C51.7985 61.9051 51.5752 61.9007 51.4379 61.9007C51.4337 62.4828 51.4404 63.1218 51.458 63.8178L51.4776 64.8681L51.511 65.2883C51.5177 65.497 51.5486 65.7042 51.603 65.9058Z" fill="#787878"/>
<path d="M57.6669 62.978C57.6669 64.2295 57.7156 65.2055 57.8129 65.9057H55.908L55.9811 61.3239C55.9838 61.0736 55.9593 60.8238 55.908 60.5788C55.8767 60.4107 55.8207 60.2481 55.7419 60.0963C55.6869 59.9998 55.6175 59.9124 55.536 59.837C55.4865 59.7865 55.4282 59.7453 55.3641 59.7153C55.3384 59.7054 55.3115 59.6989 55.2842 59.6957V59.4528C55.8024 59.1375 56.2915 58.9798 56.7515 58.9798C57.4062 58.9798 57.7334 59.4065 57.733 60.2598C57.733 60.391 57.7221 60.6131 57.7002 60.926C57.678 61.2392 57.6669 61.4826 57.6669 61.6578V62.978ZM55.7498 57.2601C55.7477 57.1357 55.7714 57.0122 55.8196 56.8975C55.8678 56.7828 55.9394 56.6794 56.0297 56.5939C56.1174 56.5058 56.222 56.4362 56.3372 56.3894C56.4524 56.3425 56.5758 56.3194 56.7002 56.3214C56.8198 56.3202 56.9384 56.3438 57.0485 56.3907C57.1586 56.4376 57.2578 56.5068 57.3399 56.5939C57.4275 56.681 57.4965 56.7849 57.5427 56.8994C57.5889 57.0139 57.6113 57.1366 57.6087 57.2601C57.6103 57.3788 57.5873 57.4965 57.541 57.6058C57.4947 57.7151 57.4262 57.8136 57.3399 57.8951C57.2566 57.98 57.157 58.0472 57.047 58.0927C56.9371 58.1381 56.8191 58.1609 56.7002 58.1596C56.4504 58.1638 56.2093 58.0686 56.0297 57.8951C55.9407 57.8152 55.8697 57.7172 55.8214 57.6077C55.7731 57.4982 55.7487 57.3797 55.7498 57.2601Z" fill="#787878"/>
<path d="M66.225 65.3821V65.6773C65.6899 65.9482 65.1925 66.0839 64.7329 66.0842C64.5007 66.0786 64.2742 66.0118 64.0762 65.8906C63.8551 65.7667 63.6803 65.5743 63.5783 65.3424C62.9906 65.8362 62.3803 66.0832 61.7475 66.0832C61.3974 66.0853 61.05 66.0231 60.7225 65.8996C60.3953 65.7728 60.0957 65.5842 59.8399 65.344C59.5722 65.097 59.3605 64.7601 59.205 64.3333C59.0494 63.9065 58.972 63.4126 58.9727 62.8517C58.9733 62.48 59.019 62.1097 59.1086 61.749C59.2012 61.3787 59.3436 61.0227 59.532 60.6907C59.7152 60.3597 59.9435 60.0557 60.2103 59.7875C60.4843 59.5176 60.8088 59.3045 61.1654 59.1604C61.5478 59.0029 61.9578 58.9234 62.3713 58.9266C62.5878 58.9308 62.8033 58.9564 63.0147 59.0028C63.2617 59.0529 63.3851 59.0867 63.3851 59.1044C63.3851 58.8285 63.3828 58.5736 63.3783 58.3398C63.3737 58.1059 63.3672 57.8925 63.3587 57.6995C63.3518 57.5268 63.3329 57.3547 63.3021 57.1847C63.278 57.0494 63.2391 56.9172 63.1862 56.7904C63.1407 56.6821 63.072 56.5851 62.9848 56.5062C62.8977 56.4274 62.7943 56.3687 62.6819 56.3343V56.0914L62.8676 55.993C63.0342 55.906 63.2099 55.8377 63.3915 55.7893C63.6025 55.7259 63.8215 55.6928 64.0418 55.6909C64.2071 55.6873 64.3721 55.705 64.5328 55.7438C64.6643 55.7812 64.7841 55.8513 64.881 55.9475C64.9965 56.07 65.0757 56.2223 65.1096 56.3872C65.164 56.6301 65.1891 56.8787 65.1842 57.1275V57.2984C65.1842 57.3774 65.1733 57.675 65.1514 58.1911C65.1295 58.7072 65.1061 59.3404 65.081 60.0907C65.0567 60.8392 65.0445 61.5373 65.0445 62.185C65.0445 62.5572 65.0466 62.8623 65.0509 63.1004C65.0551 63.3385 65.0641 63.5772 65.0779 63.8163C65.086 64.0041 65.1037 64.1913 65.1308 64.3772C65.153 64.514 65.1852 64.6489 65.2271 64.781C65.2548 64.8867 65.3032 64.986 65.3694 65.073C65.4297 65.1406 65.5003 65.1982 65.5784 65.2439C65.6649 65.2968 65.7606 65.3327 65.8605 65.3498C65.9811 65.3686 66.1029 65.3794 66.225 65.3821ZM62.4507 65.1127C62.8091 65.1127 63.1031 65.0318 63.3328 64.8698L63.3465 63.3269V59.9774C62.8597 59.8593 62.4971 59.8002 62.2586 59.8002C61.9925 59.7959 61.7335 59.8867 61.5284 60.0563C61.3156 60.2345 61.1531 60.4652 61.0569 60.7256C60.9525 60.9941 60.8748 61.2721 60.8252 61.5559C60.7767 61.8333 60.7523 62.1145 60.7522 62.3961C60.7522 63.2495 60.9091 63.9156 61.2231 64.3947C61.537 64.8737 61.9462 65.1125 62.4507 65.1111V65.1127Z" fill="#787878"/>
<path d="M72.1829 62.1572L72.0628 62.2075C71.8374 62.2954 71.5322 62.3393 71.1474 62.3393L68.136 62.2996C68.1445 62.4001 68.1493 62.5668 68.1493 62.7986C68.1666 63.4505 68.3644 63.962 68.743 64.3331C69.1215 64.7042 69.5427 64.8902 70.0065 64.8913C70.4246 64.8877 70.837 64.7948 71.2161 64.6188C71.6253 64.435 71.9846 64.1156 72.294 63.6605C72.3692 63.9279 72.3692 64.2107 72.294 64.478C72.2218 64.7332 72.086 64.9659 71.8993 65.1543C71.699 65.3537 71.4698 65.5218 71.2193 65.6527C70.9473 65.7977 70.6573 65.9059 70.3568 65.9744C70.0503 66.0456 69.7365 66.0811 69.4218 66.0803C69.039 66.0836 68.6585 66.0202 68.2974 65.893C67.9494 65.7678 67.6288 65.5764 67.3534 65.3294C67.0712 65.0783 66.8469 64.7403 66.6804 64.3156C66.5139 63.8909 66.4287 63.4028 66.4248 62.8515C66.4248 62.1297 66.5497 61.4755 66.7994 60.8889C67.0492 60.3023 67.4102 59.8377 67.8826 59.4952C68.3504 59.1528 68.9168 58.9719 69.4964 58.9798C69.8204 58.9756 70.1432 59.0187 70.4547 59.1078C70.7048 59.1766 70.9422 59.2851 71.1579 59.429C71.3424 59.5597 71.5035 59.7207 71.6342 59.9052C71.7556 60.0694 71.8579 60.2469 71.9389 60.4344C72.0111 60.6131 72.0644 60.799 72.0977 60.9889C72.1292 61.1495 72.1525 61.3117 72.1675 61.4747C72.1765 61.5953 72.1808 61.7186 72.1808 61.8451L72.1829 62.1572ZM69.4102 59.8005C69.2376 59.7978 69.0684 59.8482 68.9255 59.9449C68.773 60.0542 68.6501 60.1996 68.5678 60.3682C68.47 60.5547 68.3889 60.7495 68.3255 60.9503C68.2533 61.1863 68.1946 61.4262 68.1498 61.6689C68.4108 61.6646 68.8043 61.6516 69.3303 61.6297C69.8563 61.6078 70.2632 61.5946 70.551 61.59C70.5469 61.3791 70.5225 61.1692 70.478 60.963C70.4352 60.7642 70.3684 60.5715 70.279 60.3889C70.1975 60.2178 70.0743 60.0699 69.9208 59.9587C69.7717 59.8531 69.5929 59.7977 69.4102 59.8005Z" fill="#787878"/>
<path d="M75.6531 65.9054H73.7482C73.7747 64.5297 73.7879 63.2562 73.7879 62.0851L73.8213 57.8641C73.8213 57.4218 73.7495 57.069 73.6059 56.8059C73.4623 56.5427 73.3024 56.3854 73.126 56.3339V56.091L73.3117 55.9926C73.483 55.9059 73.6631 55.8376 73.8488 55.7888C74.0643 55.7254 74.2876 55.6923 74.5123 55.6904C74.9356 55.6904 75.2275 55.8 75.388 56.019C75.5485 56.2381 75.6281 56.575 75.6267 57.0297C75.6267 57.3055 75.6135 57.6207 75.587 57.9752C75.5306 58.934 75.5023 60.1114 75.5023 61.5072V63.2206C75.5023 63.7106 75.5134 64.1854 75.5357 64.645C75.5535 65.0669 75.5927 65.4876 75.6531 65.9054Z" fill="#787878"/>
<path d="M79.2894 62.978C79.2894 64.2295 79.3381 65.2055 79.4354 65.9057H77.5306L77.6041 61.3239C77.607 61.0736 77.5823 60.8237 77.5306 60.5788C77.4996 60.4107 77.4437 60.248 77.3649 60.0963C77.31 59.9998 77.2405 59.9124 77.1591 59.837C77.1094 59.7863 77.051 59.7451 76.9866 59.7153C76.9611 59.7054 76.9344 59.6988 76.9072 59.6957V59.4528C77.4251 59.1375 77.914 58.9798 78.374 58.9798C79.0287 58.9798 79.3559 59.4065 79.3555 60.2598C79.3555 60.391 79.3446 60.6131 79.3227 60.926C79.3005 61.2392 79.2894 61.4826 79.2894 61.6578V62.978ZM77.3723 57.2601C77.37 57.1358 77.3935 57.0124 77.4414 56.8977C77.4893 56.783 77.5606 56.6796 77.6507 56.5939C77.7383 56.5058 77.8428 56.4362 77.9579 56.3894C78.073 56.3426 78.1963 56.3195 78.3206 56.3214C78.4403 56.3202 78.559 56.3438 78.6692 56.3907C78.7794 56.4376 78.8786 56.5068 78.9608 56.5939C79.0484 56.681 79.1174 56.7849 79.1636 56.8994C79.2098 57.0139 79.2323 57.1366 79.2296 57.2601C79.2312 57.3788 79.2082 57.4965 79.1619 57.6058C79.1156 57.7151 79.0472 57.8136 78.9608 57.8951C78.8774 57.98 78.7777 58.0472 78.6677 58.0927C78.5577 58.1382 78.4396 58.1609 78.3206 58.1596C78.071 58.1637 77.8301 58.0686 77.6507 57.8951C77.5619 57.815 77.4912 57.717 77.4432 57.6075C77.3952 57.498 77.3711 57.3796 77.3723 57.2601Z" fill="#787878"/>
<path d="M83.4156 58.002L83.2627 59.1179H84.5327C84.6765 59.1166 84.8198 59.1002 84.9602 59.0687C85.1133 59.0359 85.2096 58.9802 85.2491 58.9015C85.2772 59.0064 85.2906 59.1146 85.2888 59.2232C85.2888 59.7612 84.8997 60.0303 84.1215 60.0307C84.051 60.0307 83.9039 60.024 83.6802 60.0106C83.4566 59.9972 83.3051 59.9906 83.2257 59.991V63.0171C83.2215 63.1441 83.2215 63.278 83.2257 63.4177C83.2299 63.5574 83.2357 63.6965 83.2421 63.8346C83.2482 63.9681 83.2706 64.1003 83.3088 64.2283C83.3422 64.3434 83.39 64.4538 83.4511 64.5569C83.5118 64.6536 83.5978 64.732 83.6998 64.7834C83.8182 64.8423 83.9491 64.8716 84.0813 64.8686C84.3718 64.8661 84.6603 64.8206 84.9374 64.7336C85.2332 64.6442 85.4195 64.5252 85.4946 64.3759C85.5516 64.5086 85.5748 64.6533 85.5621 64.7971C85.5493 64.9409 85.5011 65.0793 85.4216 65.1998C85.2583 65.469 85.0029 65.6834 84.6554 65.8432C84.3047 66.0038 83.9231 66.0857 83.5373 66.0829C83.1221 66.0829 82.7784 66.0348 82.5061 65.9385C82.2573 65.8592 82.0402 65.703 81.8859 65.4924C81.743 65.2884 81.6436 65.0571 81.5938 64.813C81.5358 64.5047 81.5092 64.1912 81.5145 63.8775C81.5145 63.5448 81.5365 63.051 81.5806 62.3959C81.6247 61.7408 81.6467 61.2616 81.6467 60.9582C81.6467 60.4418 81.6071 60.1333 81.5277 60.0328C81.3518 59.8085 81.1155 59.6391 80.8467 59.5444L80.9128 59.1444C80.9666 59.142 81.0199 59.1332 81.0716 59.1179C81.1773 59.0855 81.2805 59.045 81.3801 58.9967C81.554 58.9073 81.7112 58.7885 81.8446 58.6454C82.0325 58.4523 82.1951 58.2361 82.3283 58.002H83.4156Z" fill="#787878"/>
<path d="M89.741 65.8922L89.5823 65.8265C89.4489 65.7689 89.3284 65.6852 89.2278 65.5805C89.1019 65.4632 89.0092 65.3148 88.959 65.1503L87.7711 61.4135C87.6951 61.1592 87.5986 60.9115 87.4827 60.6727C87.3984 60.4945 87.2984 60.3241 87.1837 60.1637C87.1036 60.0551 87.0138 59.9539 86.9154 59.8616C86.8537 59.8029 86.787 59.7498 86.7159 59.7028C86.6853 59.6829 86.652 59.6674 86.617 59.6568L86.6032 59.4139C86.787 59.2876 86.9866 59.1862 87.1969 59.1123C87.4074 59.0292 87.631 58.9842 87.8573 58.9795C88.2379 58.9795 88.5164 59.0691 88.6928 59.2483C88.8692 59.4275 89.0103 59.7141 89.1161 60.1081C89.2043 60.6161 89.5581 61.7273 90.1776 63.4417L90.34 63.773C90.4395 63.9765 90.4936 64.0915 90.5025 64.118L90.5686 63.8423C90.604 63.6837 90.6507 63.528 90.7083 63.3761L91.5639 60.9537C91.6877 60.6084 91.7496 60.3261 91.7496 60.1071C91.7496 59.888 91.6745 59.737 91.5242 59.6541L91.4972 59.4113C91.8036 59.1482 92.1896 58.9961 92.5931 58.9795C92.9106 58.9795 93.0693 59.1458 93.0693 59.4785C93.0693 59.7102 92.9564 60.1041 92.7307 60.66L90.0262 67.251C89.9289 67.4873 89.847 67.6789 89.7807 67.8256C89.7144 67.9724 89.6289 68.1456 89.5241 68.3452C89.4371 68.5166 89.3292 68.6766 89.2029 68.8215C89.0848 68.949 88.9572 69.0675 88.8214 69.176C88.6767 69.2936 88.5096 69.3807 88.3303 69.4321C88.1353 69.4859 87.9337 69.5119 87.7314 69.5093C87.3243 69.5093 87.0047 69.3562 86.7726 69.05C86.5405 68.7439 86.4699 68.363 86.5609 67.9076C86.6495 68.017 86.7921 68.1068 86.989 68.177C87.1793 68.246 87.3802 68.2818 87.5827 68.2828C87.9185 68.2828 88.2048 68.2205 88.4415 68.096C88.667 67.9829 88.8447 67.793 88.9426 67.5605L89.5775 66.1758L89.741 65.8922Z" fill="#787878"/>
<path d="M85.5319 18.1708C85.1937 18.1084 84.8504 18.077 84.5064 18.0771H52.447C52.3707 18.0773 52.2976 18.1077 52.2436 18.1616C52.1897 18.2156 52.1593 18.2887 52.1592 18.365V45.2489C52.1587 46.5252 52.5905 47.764 53.3841 48.7634C62.6388 45.1812 78.906 32.6692 86.2436 18.3486C86.0106 18.2737 85.7728 18.2143 85.5319 18.1708Z" fill="#787878"/>
<path d="M90.1679 23.7383V50.6212C90.1678 50.6975 90.1374 50.7706 90.0835 50.8246C90.0295 50.8785 89.9564 50.9089 89.8801 50.909H57.8207C56.9695 50.9098 56.1292 50.7184 55.3623 50.3492C64.7884 46.5759 81.1075 33.8861 88.2318 19.4756C88.8409 20.0061 89.329 20.6612 89.663 21.3966C89.997 22.132 90.1692 22.9306 90.1679 23.7383Z" fill="#787878"/>
</svg>
