<svg width="100" height="85" viewBox="0 0 100 85" fill="none" xmlns="http://www.w3.org/2000/svg">
<rect width="137" height="85" rx="8" fill="white"/>
<g clip-path="url(#clip0_1485_17772)">
<path d="M72.1376 45.3303C72.1639 45.282 72.1852 45.2312 72.2085 45.1816L80.6315 26.8766C80.7005 26.7274 80.7701 26.5787 80.8379 26.4288C80.8617 26.3774 80.8855 26.3322 80.9545 26.3329C81.1095 26.3329 81.265 26.3329 81.4419 26.3329C81.403 26.4269 81.3792 26.4966 81.3466 26.5637C78.3434 33.1106 75.3404 39.6574 72.3377 46.204C72.2179 46.4649 72.0943 46.7251 71.9789 46.9879C71.8773 47.22 71.8923 47.4458 72.0604 47.6427C72.1335 47.7346 72.2315 47.8036 72.3427 47.8414C72.4539 47.8792 72.5737 47.8843 72.6877 47.856C72.9386 47.8052 73.064 47.6314 73.1618 47.4169C76.1587 40.8955 79.1546 34.3753 82.1494 27.8563C82.4354 27.2341 82.7139 26.6101 83.0087 25.9904C83.1705 25.6467 83.0394 25.1632 82.5878 25.0697V25.0283H80.3261C80.3282 25.0347 80.329 25.0415 80.3284 25.0482C80.3278 25.0549 80.3257 25.0614 80.3223 25.0672C80.0764 25.1211 79.946 25.2949 79.845 25.5062C79.5104 26.2346 79.1759 26.9628 78.8414 27.6907C76.463 32.8813 74.082 38.0706 71.6985 43.2587C71.6646 43.3333 71.6289 43.4067 71.5881 43.4933C71.494 43.4305 71.4928 43.3264 71.442 43.253C71.2676 43.0022 71.3103 42.7707 71.4363 42.4967C73.8901 37.1602 76.3363 31.8205 78.7749 26.4777C78.8514 26.3097 78.9305 26.1422 79.0064 25.976C79.1858 25.5771 78.9944 25.1782 78.5711 25.0634C78.569 25.0515 78.5643 25.0401 78.5573 25.0302H76.34C76.3434 25.0431 76.3416 25.0569 76.335 25.0685C76.0904 25.118 75.9455 25.2798 75.8464 25.4962C75.4642 26.3304 75.0814 27.1641 74.6979 27.9974L69.6581 38.9731C69.6349 39.0227 69.6111 39.0716 69.5797 39.1356C69.4781 39.0277 69.4543 38.8897 69.3853 38.78C69.2561 38.5755 69.2768 38.393 69.379 38.1716C71.2248 34.1748 73.0646 30.1754 74.8986 26.1736C74.977 26.003 75.036 25.833 74.9927 25.6392C74.9685 25.5141 74.9057 25.3996 74.8131 25.312C74.7205 25.2244 74.6028 25.1679 74.4765 25.1506C74.4016 25.1417 74.3261 25.1382 74.2507 25.14C73.6749 25.14 73.0991 25.1506 72.524 25.1356C72.1514 25.1255 71.9212 25.2848 71.7713 25.616C70.761 27.8254 69.7468 30.0337 68.7286 32.2409C68.3686 33.0249 68.0085 33.8089 67.6485 34.5929C67.6234 34.6487 67.5933 34.702 67.5519 34.7842C67.4516 34.5647 67.3637 34.3677 67.2703 34.1702C67.2358 34.0943 67.2891 34.0385 67.3161 33.982C67.6134 33.3272 67.9121 32.6733 68.2124 32.0202C69.1189 30.0408 70.0253 28.0612 70.9314 26.0814C71.0569 25.8092 71.0199 25.5388 70.8329 25.3369C70.7815 25.2767 70.7178 25.2282 70.6461 25.1947C70.5743 25.1611 70.4963 25.1433 70.4171 25.1425C69.7384 25.1425 69.0598 25.1368 68.3811 25.1425C68.0894 25.1425 67.9006 25.3149 67.7827 25.5715L67.1053 27.046C66.6173 28.1097 66.1287 29.1723 65.6395 30.234C65.615 30.2879 65.6044 30.3531 65.536 30.3926L65.0286 29.2932C64.4772 28.0927 63.9215 26.8936 63.3783 25.6894C63.2529 25.4065 63.1049 25.1581 62.8082 25.0302H62.5203C62.4682 25.0979 62.381 25.1092 62.3158 25.1556C62.1032 25.3087 61.9965 25.5087 62.0285 25.7734C62.0475 25.8674 62.0807 25.9579 62.127 26.0419C63.0051 27.9594 63.8832 29.8762 64.7614 31.7925C64.7907 31.8453 64.8067 31.9044 64.8079 31.9647C64.8091 32.0251 64.7955 32.0848 64.7683 32.1387C63.7016 34.4505 62.6382 36.7634 61.5782 39.0773C61.5621 39.1292 61.5334 39.1764 61.4948 39.2146C61.4428 39.1463 61.4021 39.07 61.3743 38.9888C59.3308 34.5408 57.2875 30.0924 55.2444 25.6436C55.2127 25.5679 55.175 25.4949 55.1315 25.4253C54.9434 25.1443 54.6021 25.049 54.3218 25.1995C53.9956 25.3726 53.8739 25.7013 54.0151 26.0337C54.0395 26.0908 54.0665 26.146 54.0916 26.2024L60.833 40.9162C60.8597 40.9804 60.8896 41.0432 60.9227 41.1043C61.178 41.5433 61.7507 41.5546 62.0235 41.13C62.0721 41.0475 62.115 40.9618 62.1521 40.8735L65.4356 33.7462C65.4609 33.6722 65.4982 33.6029 65.546 33.5411C65.642 33.6784 65.6846 33.839 65.7662 33.9801C65.8327 34.0943 65.817 34.1927 65.7631 34.3075C65.4783 34.9153 65.1985 35.5261 64.9213 36.1358C63.9177 38.3196 62.9142 40.5035 61.9106 42.6873C61.8671 42.7731 61.8442 42.8677 61.8437 42.9639C61.8431 43.06 61.865 43.1549 61.9075 43.2411C61.9608 43.3528 62.0116 43.465 62.0624 43.5773C62.3302 44.17 62.5993 44.7621 62.864 45.356C62.9531 45.5554 63.0873 45.6991 63.3031 45.7543C63.6499 45.8427 63.9372 45.706 64.094 45.3698C64.4202 44.668 64.7419 43.9649 65.0656 43.2618C65.8601 41.5325 66.6558 39.8035 67.4528 38.075C67.4785 38.0192 67.4873 37.9496 67.5619 37.9132C67.6291 38.0593 67.683 38.2011 67.7564 38.3315C67.8298 38.462 67.8153 38.5655 67.7564 38.6953C66.4957 41.4369 65.2366 44.1802 63.9792 46.9252C63.9478 46.9936 63.9134 47.0613 63.8889 47.1322C63.8581 47.2145 63.8453 47.3025 63.8514 47.3902C63.8575 47.4779 63.8823 47.5633 63.9243 47.6406C63.9662 47.7178 64.0242 47.7852 64.0944 47.8382C64.1645 47.8911 64.2453 47.9284 64.3311 47.9475C64.6353 48.0259 64.9194 47.8848 65.0649 47.5712C65.3995 46.85 65.7311 46.1283 66.0597 45.4062C66.8492 43.6894 67.6391 41.9728 68.4294 40.2564C68.4583 40.1936 68.467 40.1127 68.5511 40.0757C68.6006 40.1817 68.647 40.2808 68.6928 40.3799C68.7875 40.585 68.876 40.7939 68.9789 40.9946C69.0292 41.1009 69.1084 41.1909 69.2074 41.2543C69.3065 41.3177 69.4214 41.352 69.539 41.3533C69.7968 41.3627 69.978 41.2279 70.1097 41.014C70.1466 40.9483 70.1799 40.8807 70.2095 40.8114L76.3776 27.4116C76.5236 27.0943 76.6699 26.7771 76.8167 26.4602C76.8456 26.3975 76.865 26.3291 76.9553 26.3347C77.1046 26.3416 77.2551 26.3216 77.4076 26.3479C77.4138 26.4564 77.3511 26.5361 77.3128 26.6195C75.3617 30.8768 73.4094 35.1333 71.4558 39.389C70.9645 40.4594 70.4729 41.5295 69.9812 42.5995C69.9405 42.6752 69.9173 42.759 69.9131 42.8449C69.909 42.9307 69.9241 43.0164 69.9573 43.0956C70.2919 43.8395 70.6276 44.5818 70.9647 45.3228C71.0794 45.5736 71.2889 45.6834 71.5599 45.6853C71.6804 45.6891 71.7993 45.6575 71.902 45.5944C72.0047 45.5313 72.0866 45.4395 72.1376 45.3303ZM66.3169 31.822C66.5782 31.25 66.8413 30.6782 67.1059 30.1066C67.6447 28.9382 68.186 27.771 68.7179 26.5994C68.7806 26.4577 68.8584 26.4012 69.0096 26.4188C69.1312 26.4252 69.253 26.4252 69.3746 26.4188L66.5433 32.5903C66.4405 32.3676 66.3595 32.1889 66.2761 32.012C66.2416 31.938 66.2924 31.8816 66.3194 31.822H66.3169ZM66.7729 36.4933C66.3966 37.3149 66.0202 38.1356 65.6439 38.9556C64.9744 40.4165 64.3045 41.8787 63.6342 43.3421C63.5979 43.4218 63.5602 43.5002 63.5119 43.6036C63.4983 43.5893 63.4857 43.574 63.4743 43.5579C63.3871 43.3647 63.2485 43.1772 63.2284 42.9771C63.2096 42.7889 63.3645 42.6127 63.4467 42.4333C64.4394 40.2595 65.4338 38.0873 66.4298 35.9169C66.4554 35.8371 66.4982 35.7638 66.5552 35.7024C66.6493 35.9081 66.7434 36.1044 66.8287 36.302C66.8588 36.3747 66.8061 36.433 66.7754 36.4933H66.7729ZM68.5492 36.9599C68.4488 36.7429 68.3704 36.5685 68.287 36.3954C68.2431 36.3045 68.2952 36.2355 68.3284 36.1634C68.6508 35.4597 68.9745 34.7568 69.2994 34.0548C70.4384 31.5795 71.5773 29.104 72.7159 26.6283C72.736 26.585 72.7585 26.5423 72.7786 26.4978C72.7875 26.4725 72.8048 26.4509 72.8276 26.4366C72.8504 26.4224 72.8774 26.4163 72.9041 26.4194C73.054 26.4194 73.2032 26.4194 73.3839 26.4194L68.5492 36.9599Z" fill="#787878"/>
<path d="M47.5248 53.3922L45.8075 58.0735L45.2662 59.5097C45.2593 59.5292 44.1798 59.5687 44.1798 59.5687C44.1758 59.5421 44.1695 59.5158 44.161 59.4903C43.6609 58.2535 43.1599 57.0169 42.6581 55.7805C42.6437 55.7447 42.6374 55.7021 42.5904 55.6914C42.5828 55.7031 42.5759 55.7153 42.5697 55.7278L41.0135 59.5687H39.9473C39.9617 59.4884 39.9146 59.4232 39.8895 59.3542C39.6056 58.589 39.3215 57.8257 39.0371 57.0643C38.6495 56.019 38.2617 54.975 37.8736 53.9322L37.8686 53.9184L37.703 53.4775L37.6748 53.4009C38.1289 53.4009 38.5843 53.4009 39.0384 53.3896C39.1582 53.3896 39.1858 53.4524 39.219 53.5414C39.5301 54.3597 39.8427 55.1778 40.1567 55.9956C40.2747 56.3004 40.392 56.6052 40.5256 56.9521C40.5638 56.8655 40.5883 56.8141 40.609 56.7639C41.0409 55.7031 41.4731 54.6436 41.9055 53.5853C41.997 53.3621 41.9487 53.3972 42.1996 53.3928C42.5132 53.3928 42.8269 53.3928 43.1449 53.3928C43.3261 53.3928 43.3268 53.3928 43.3958 53.5634C43.8085 54.6208 44.221 55.6787 44.6333 56.7369C44.6571 56.7997 44.6853 56.8624 44.7261 56.9577C44.7619 56.8737 44.7888 56.8222 44.8064 56.7695L46.0721 53.5841C46.148 53.3922 46.1487 53.3922 46.3456 53.3922H47.5248Z" fill="#787878"/>
<path d="M61.8368 57.3112C61.8368 56.0447 61.8368 54.778 61.8368 53.5111C61.8368 53.3292 61.8368 53.3279 61.6587 53.3273C61.2823 53.3273 60.906 53.3367 60.5297 53.3223C60.3509 53.3154 60.2512 53.3693 60.1596 53.5293C59.5844 54.5328 58.9974 55.5293 58.4128 56.5272C58.377 56.5899 58.3544 56.6614 58.2773 56.7047C58.2365 56.6351 58.2008 56.5793 58.1682 56.5165C57.6036 55.5055 57.0429 54.4957 56.4866 53.4816C56.4653 53.429 56.4273 53.3847 56.3785 53.3557C56.3296 53.3267 56.2726 53.3146 56.2162 53.321C55.8054 53.3311 55.3945 53.321 54.9837 53.3254C54.7203 53.3254 54.7447 53.2941 54.7447 53.5688C54.7447 55.4382 54.7447 57.3076 54.7447 59.1771C54.7447 59.3069 54.7479 59.4373 54.7498 59.5672H56.0669V55.9013C56.1334 55.9151 56.1428 55.9583 56.161 55.9916C56.8033 57.1368 57.4452 58.2823 58.0866 59.4279C58.1016 59.4582 58.1146 59.4894 58.1255 59.5214C58.1851 59.5571 58.2096 59.5157 58.2353 59.4725L58.6436 58.7826C59.1872 57.8627 59.7318 56.9447 60.2775 56.0286C60.3065 55.956 60.3557 55.8933 60.4193 55.848V56.0148C60.4193 57.1237 60.4193 58.2317 60.4193 59.3389C60.4193 59.4141 60.423 59.4894 60.4249 59.5647H61.8236C61.8419 59.4915 61.8468 59.4156 61.8381 59.3407C61.8377 58.6659 61.8372 57.9894 61.8368 57.3112Z" fill="#787878"/>
<path d="M53.5983 58.3317C52.3313 58.3317 51.0641 58.3317 49.7967 58.3317C49.6035 58.3317 49.6022 58.3317 49.6016 58.1479C49.6016 57.8193 49.6016 57.49 49.6016 57.1614C49.6016 56.9832 49.6016 56.9826 49.7804 56.9807H49.8826C50.6842 56.9807 51.4858 56.9807 52.2874 56.9807C52.4455 56.9807 52.448 56.9807 52.4486 56.8258C52.4486 56.5317 52.4486 56.2369 52.4486 55.9421C52.4486 55.7496 52.4486 55.7665 52.2648 55.7652C51.7856 55.7621 51.3058 55.7652 50.8266 55.7652C50.4703 55.7652 50.114 55.7652 49.7603 55.7652C49.6072 55.7652 49.6047 55.7615 49.6035 55.6041C49.6035 55.33 49.6035 55.0559 49.6035 54.7818C49.6035 54.6401 49.6072 54.6369 49.754 54.6369C50.2194 54.6369 50.6854 54.6369 51.1515 54.6369C51.9665 54.6369 52.7819 54.6369 53.5977 54.6369C53.7539 54.6369 53.7557 54.6369 53.757 54.4783C53.757 54.1904 53.757 53.9025 53.757 53.6153C53.757 53.3838 53.7846 53.3957 53.5343 53.3957C51.8354 53.3957 50.1366 53.3957 48.4381 53.3957C48.1314 53.3957 48.1728 53.3619 48.1728 53.6529C48.1728 55.6252 48.1728 57.5979 48.1728 59.571H53.8479C53.8479 59.2424 53.8555 58.9137 53.8555 58.5851C53.8517 58.2953 53.8818 58.3348 53.5983 58.3317Z" fill="#787878"/>
<path d="M96.4817 55.7506C97.4301 54.9541 98.378 54.1569 99.3256 53.3591V53.3184C98.7611 53.3184 98.2022 53.3284 97.6408 53.3221C97.4915 53.3166 97.3455 53.3679 97.2325 53.4657C96.3724 54.1669 95.5091 54.864 94.6427 55.5568C94.5937 55.5957 94.5567 55.6672 94.4658 55.6458V55.4796C94.4658 54.8148 94.4658 54.1502 94.4658 53.4858C94.4658 53.3296 94.4627 53.3271 94.3058 53.3265C93.9358 53.3265 93.5659 53.3265 93.1963 53.3265C93.0382 53.3265 93.0382 53.3265 93.0345 53.4839C93.0345 53.5247 93.0345 53.5661 93.0345 53.6094V58.8915C93.0345 59.0558 93.0388 59.2208 93.0345 59.3845C93.0307 59.4892 93.0646 59.5287 93.1737 59.5275C93.5576 59.5218 93.9408 59.5225 94.3247 59.5275C94.4269 59.5275 94.4821 59.5024 94.4689 59.3901C94.4663 59.3484 94.4663 59.3065 94.4689 59.2647C94.4689 58.6956 94.4689 58.127 94.4689 57.5588C94.4689 57.496 94.4526 57.4214 94.521 57.3706C94.7518 57.1996 94.9818 57.0271 95.2109 56.8532C95.2194 56.8448 95.2298 56.8385 95.2412 56.8348C95.2525 56.8312 95.2646 56.8302 95.2764 56.8321C95.2882 56.834 95.2994 56.8387 95.3091 56.8457C95.3187 56.8528 95.3266 56.862 95.332 56.8726C95.3571 56.9052 95.3834 56.9353 95.4098 56.9686C96.0751 57.7785 96.7399 58.5886 97.4044 59.3989C97.4332 59.4399 97.472 59.473 97.5171 59.4949C97.5622 59.5169 97.6121 59.527 97.6622 59.5244C98.142 59.5175 98.6218 59.5244 99.101 59.52C99.1437 59.52 99.197 59.5463 99.2265 59.4911C99.1997 59.4279 99.16 59.3711 99.1098 59.3243C98.2242 58.2263 97.3379 57.1283 96.451 56.0303C96.3287 55.8792 96.2986 55.9042 96.4817 55.7506Z" fill="#787878"/>
<path d="M68.8894 58.7869C68.0678 57.0571 67.248 55.3269 66.4301 53.5963C66.3536 53.4333 66.2664 53.3768 66.0914 53.3881C65.8453 53.4032 65.5986 53.4032 65.3525 53.3881C65.1869 53.3787 65.1016 53.432 65.0301 53.5882C64.3671 55.037 63.6935 56.4808 63.023 57.927C62.7721 58.4727 62.5212 59.0209 62.2734 59.5678H63.6301C63.8578 59.1074 64.0874 58.6489 64.3094 58.188C64.3577 58.0882 64.4248 58.0713 64.5221 58.0719C65.111 58.0719 65.7006 58.0719 66.2902 58.0719C66.4821 58.0719 66.6741 58.0719 66.866 58.0719C66.8996 58.068 66.9335 58.0753 66.9626 58.0925C66.9917 58.1097 67.0144 58.1359 67.0272 58.1673C67.248 58.6157 67.4732 59.0616 67.6958 59.5094C67.7013 59.5299 67.7032 59.5511 67.7015 59.5721H69.2231C69.2532 59.5094 69.2081 59.4687 69.1861 59.4216C69.0895 59.2096 68.9892 58.997 68.8894 58.7869ZM64.8495 56.9681L65.6906 55.3211C65.9785 55.8937 66.2432 56.4224 66.5192 56.9718L64.8495 56.9681Z" fill="#787878"/>
<path d="M77.3218 56.4062C77.2553 56.3617 77.1731 56.3372 77.1229 56.2714C77.128 56.2601 77.1292 56.2532 77.1336 56.2494C77.1606 56.2281 77.1875 56.2074 77.2151 56.1867C77.5639 55.9358 77.7696 55.6009 77.7985 55.1706C77.8612 54.2807 77.4221 53.6209 76.5635 53.4101C76.296 53.3498 76.0222 53.3218 75.7481 53.3267C74.5145 53.3267 73.281 53.3267 72.0474 53.3267C71.8668 53.3267 71.8643 53.3267 71.8643 53.5042C71.8643 55.4502 71.8643 57.3963 71.8643 59.3427C71.8643 59.5214 71.8643 59.5214 72.0443 59.5233H72.1264C73.278 59.5233 74.4294 59.5233 75.5806 59.5233C75.8272 59.5248 76.0737 59.5118 76.3188 59.4844C77.3055 59.3709 78.0431 58.7004 77.9917 57.5909C77.9872 57.3534 77.9237 57.1206 77.8067 56.9138C77.6898 56.7069 77.5231 56.5325 77.3218 56.4062ZM73.295 54.7347C73.295 54.5849 73.2987 54.5798 73.438 54.5798C74.1706 54.5798 74.9036 54.5809 75.637 54.583C75.7742 54.5812 75.9109 54.6004 76.0422 54.64C76.2774 54.7153 76.3803 54.8715 76.3765 55.1418C76.3728 55.3971 76.2636 55.5495 76.0366 55.6197C75.8707 55.6635 75.6993 55.6825 75.5279 55.6761C75.2193 55.6793 74.9113 55.6761 74.6027 55.6761C74.2195 55.6761 73.8356 55.6761 73.4518 55.6761C73.2981 55.6761 73.2962 55.6724 73.295 55.5143C73.2933 55.2551 73.2933 54.9952 73.295 54.7347ZM76.2084 58.1523C75.9657 58.2645 75.7029 58.2689 75.4432 58.2777C75.1622 58.2852 74.8787 58.2777 74.6002 58.2777C74.2239 58.2777 73.8476 58.2777 73.4712 58.2777C73.2987 58.2777 73.2962 58.2777 73.2956 58.1134C73.2956 57.7634 73.2956 57.4141 73.2956 57.0647C73.2956 56.9669 73.3276 56.9343 73.4254 56.9349C74.1781 56.9393 74.9308 56.9349 75.6835 56.9437C75.8484 56.9452 76.0119 56.9756 76.1664 57.0334C76.4123 57.1256 76.5302 57.3106 76.5428 57.569C76.5553 57.8274 76.4568 58.0381 76.2084 58.1523Z" fill="#787878"/>
<path d="M92.008 53.3243C91.6856 53.3299 91.3638 53.3243 91.0414 53.3243C90.8056 53.3243 90.8225 53.3048 90.8225 53.5488C90.8225 54.6447 90.8225 55.7408 90.8225 56.8371C90.8225 56.9055 90.8457 56.982 90.7786 57.0629C90.7203 56.9964 90.6726 56.9375 90.6199 56.8842C89.5014 55.7444 88.3835 54.6046 87.2661 53.4648C87.2247 53.4161 87.1726 53.3778 87.1138 53.3529C87.055 53.328 86.9912 53.3171 86.9274 53.3211C86.6602 53.3312 86.393 53.3211 86.1258 53.3243C85.875 53.3243 85.8881 53.2973 85.8881 53.5513V59.2857C85.8881 59.3271 85.8881 59.3678 85.8881 59.4111C85.8837 59.4864 85.9126 59.524 85.9935 59.5234C86.3636 59.5234 86.7336 59.5234 87.1037 59.5234C87.1802 59.5234 87.2197 59.4976 87.2172 59.418C87.2172 59.3628 87.2172 59.3082 87.2172 59.253C87.2172 58.1505 87.2172 57.0474 87.2172 55.944C87.2077 55.8699 87.2131 55.7947 87.2329 55.7226C87.3032 55.7295 87.3295 55.7853 87.3659 55.8198C87.6124 56.0669 87.857 56.3166 88.1029 56.5649C89.0362 57.5107 89.9695 58.4571 90.9028 59.4042C90.9381 59.4448 90.9822 59.4768 91.0318 59.4977C91.0814 59.5186 91.1351 59.5278 91.1888 59.5246C91.4397 59.5165 91.6963 59.5246 91.9497 59.5246C92.1498 59.5246 92.1498 59.5246 92.1516 59.3227V53.5864C92.1516 53.545 92.1485 53.5036 92.1516 53.461C92.1617 53.3556 92.114 53.3224 92.008 53.3243Z" fill="#787878"/>
<path d="M83.9874 56.8575C83.453 55.7324 82.9194 54.6072 82.3867 53.482C82.3334 53.3685 82.2719 53.3177 82.1415 53.3227C81.8611 53.3328 81.5769 53.334 81.2997 53.3227C81.1624 53.3171 81.0952 53.3622 81.0375 53.4877C80.1385 55.4386 79.2368 57.3883 78.3323 59.3368C78.3078 59.3901 78.2608 59.4397 78.289 59.525C78.6942 59.525 79.1044 59.525 79.5127 59.525C79.6137 59.525 79.6382 59.4566 79.6689 59.3907C79.874 58.9806 80.0835 58.5754 80.2817 58.1589C80.3002 58.1089 80.335 58.0666 80.3806 58.039C80.4261 58.0113 80.4797 57.9999 80.5326 58.0065C81.279 58.0122 82.0254 58.0134 82.7718 58.0065C82.9148 58.0065 82.9901 58.0467 83.0522 58.1796C83.2441 58.5879 83.453 58.9887 83.6556 59.392C83.6888 59.4591 83.7114 59.5262 83.8118 59.5256C84.2772 59.5212 84.7426 59.5256 85.2237 59.5256C85.2189 59.4551 85.1974 59.3867 85.1609 59.3261C84.7691 58.502 84.3779 57.6792 83.9874 56.8575ZM80.8745 56.9203C80.8901 56.7823 81.5017 55.5574 81.6899 55.2896L82.5096 56.9203H80.8745Z" fill="#787878"/>
</g>
<defs>
<clipPath id="clip0_1485_17772">
<rect width="62.7229" height="62.7184" fill="white" transform="translate(37.1387 10.7285)"/>
</clipPath>
</defs>
</svg>
