<svg width="52" height="52" viewBox="0 0 52 52" fill="none" xmlns="http://www.w3.org/2000/svg">
<rect width="52" height="52" rx="8" fill="#FFF0D4"/>
<path d="M34.4037 28.1024C35.5641 28.1024 36.5048 27.1618 36.5048 26.0014C36.5048 24.841 35.5641 23.9004 34.4037 23.9004C33.2434 23.9004 32.3027 24.841 32.3027 26.0014C32.3027 27.1618 33.2434 28.1024 34.4037 28.1024Z" stroke="#F9AF21" stroke-width="1.5" stroke-linecap="round" stroke-linejoin="round"/>
<path d="M34.4037 19.6981C35.5641 19.6981 36.5048 18.7575 36.5048 17.5971C36.5048 16.4367 35.5641 15.4961 34.4037 15.4961C33.2434 15.4961 32.3027 16.4367 32.3027 17.5971C32.3027 18.7575 33.2434 19.6981 34.4037 19.6981Z" stroke="#F9AF21" stroke-width="1.5" stroke-linecap="round" stroke-linejoin="round"/>
<path d="M34.4037 36.5048C35.5641 36.5048 36.5048 35.5641 36.5048 34.4037C36.5048 33.2434 35.5641 32.3027 34.4037 32.3027C33.2434 32.3027 32.3027 33.2434 32.3027 34.4037C32.3027 35.5641 33.2434 36.5048 34.4037 36.5048Z" stroke="#F9AF21" stroke-width="1.5" stroke-linecap="round" stroke-linejoin="round"/>
<path d="M17.5952 28.1024C18.7555 28.1024 19.6962 27.1618 19.6962 26.0014C19.6962 24.841 18.7555 23.9004 17.5952 23.9004C16.4348 23.9004 15.4941 24.841 15.4941 26.0014C15.4941 27.1618 16.4348 28.1024 17.5952 28.1024Z" stroke="#F9AF21" stroke-width="1.5" stroke-linecap="round" stroke-linejoin="round"/>
<path d="M19.6963 26H32.3024" stroke="#F9AF21" stroke-width="1.5" stroke-linecap="round" stroke-linejoin="round"/>
<path d="M32.3028 17.5957H28.1007C25.9997 17.5957 24.9492 18.6462 24.9492 20.7472V31.2523C24.9492 33.3533 25.9997 34.4038 28.1007 34.4038H32.3028" stroke="#F9AF21" stroke-width="1.5" stroke-linecap="round" stroke-linejoin="round"/>
</svg>
