<svg width="179" height="43" viewBox="0 0 179 43" fill="none" xmlns="http://www.w3.org/2000/svg">
<path d="M167.011 13.2665C168.066 13.1532 168.295 11.793 167.312 11.3942C157.63 7.46524 142.579 4.36284 124.412 2.58807C104.014 0.595415 81.1366 0.417976 60.2044 2.09007C39.2721 3.76217 21.7728 7.16497 11.0914 11.6403C0.409911 16.1156 -2.69461 21.3453 2.37833 26.3179C7.45126 31.2905 20.3411 35.6526 38.5546 38.5604C56.7681 41.4682 79.0109 42.7151 100.98 42.0598C122.95 41.4045 143.085 38.8937 157.491 35.013C170.089 31.6193 177.523 27.3888 178.802 22.9652C179.107 21.9087 178.135 21.056 177.036 21.0626C175.756 21.0703 174.779 22.2375 174.297 23.4235C172.665 27.442 165.69 31.2684 154.2 34.3634C140.492 38.0563 121.331 40.4456 100.425 41.0691C79.5186 41.6927 58.3524 40.5062 41.0204 37.7391C23.6884 34.9721 11.4224 30.8211 6.59502 26.0892C1.76762 21.3573 4.72187 16.3806 14.8863 12.1219C25.0508 7.86322 41.7032 4.62512 61.6223 3.03395C81.5414 1.44278 103.312 1.61164 122.722 3.50784C141.935 5.38475 157.484 8.822 166.43 13.1651C166.612 13.2532 166.811 13.288 167.011 13.2665Z" fill="#F9AF21"/>
</svg>
