<svg width="42" height="13" viewBox="0 0 42 13" fill="none" xmlns="http://www.w3.org/2000/svg">
<path d="M0.96 12V0.16H3.792L8.16 6.736V0.16H11.2V12H8.336L4 5.76V12H0.96ZM13.1163 12V0.16H18.0123C18.9936 0.16 19.8523 0.330667 20.5883 0.672C21.3349 1.00267 21.9536 1.45067 22.4443 2.016C22.9456 2.58133 23.3189 3.216 23.5643 3.92C23.8096 4.624 23.9323 5.344 23.9323 6.08C23.9323 6.816 23.8096 7.536 23.5643 8.24C23.3189 8.944 22.9456 9.57867 22.4443 10.144C21.9536 10.7093 21.3349 11.1627 20.5883 11.504C19.8523 11.8347 18.9936 12 18.0123 12H13.1163ZM17.8683 2.848H16.1883V9.264H17.8683C18.5616 9.264 19.1269 9.10933 19.5643 8.8C20.0016 8.48 20.3216 8.07467 20.5243 7.584C20.7376 7.09333 20.8443 6.58133 20.8443 6.048C20.8443 5.51467 20.7376 5.008 20.5243 4.528C20.3216 4.03733 20.0016 3.63733 19.5643 3.328C19.1269 3.008 18.5616 2.848 17.8683 2.848ZM25.3663 12V0.16H28.4383V12H25.3663ZM35.9186 12.16C34.916 12.16 34.036 11.9893 33.2786 11.648C32.5213 11.296 31.892 10.832 31.3906 10.256C30.8893 9.66933 30.5106 9.01333 30.2546 8.288C29.9986 7.56267 29.8706 6.82133 29.8706 6.064C29.8706 5.30667 29.9986 4.57067 30.2546 3.856C30.5106 3.13067 30.8893 2.48 31.3906 1.904C31.892 1.328 32.5213 0.869333 33.2786 0.528C34.036 0.175999 34.916 -9.53674e-07 35.9186 -9.53674e-07C36.772 -9.53674e-07 37.5026 0.106666 38.1106 0.32C38.7186 0.533333 39.2253 0.810666 39.6306 1.152C40.036 1.48267 40.356 1.84 40.5906 2.224C40.836 2.59733 41.0173 2.95467 41.1346 3.296C41.2626 3.62667 41.3426 3.89867 41.3746 4.112C41.4173 4.32533 41.4386 4.432 41.4386 4.432H38.3986C38.3986 4.432 38.372 4.34667 38.3186 4.176C38.2653 4.00533 38.1586 3.808 37.9986 3.584C37.8386 3.34933 37.5933 3.14667 37.2626 2.976C36.932 2.80533 36.4946 2.72 35.9506 2.72C35.3106 2.72 34.772 2.88533 34.3346 3.216C33.908 3.536 33.588 3.952 33.3746 4.464C33.1613 4.976 33.0546 5.50933 33.0546 6.064C33.0546 6.61867 33.1613 7.152 33.3746 7.664C33.588 8.176 33.908 8.59733 34.3346 8.928C34.772 9.25867 35.3106 9.424 35.9506 9.424C36.4946 9.424 36.932 9.33867 37.2626 9.168C37.5933 8.99733 37.8386 8.8 37.9986 8.576C38.1586 8.352 38.2653 8.15467 38.3186 7.984C38.372 7.81333 38.3986 7.728 38.3986 7.728H41.4386C41.4386 7.728 41.4173 7.83467 41.3746 8.048C41.3426 8.26133 41.2626 8.53867 41.1346 8.88C41.0173 9.21067 40.836 9.568 40.5906 9.952C40.356 10.3253 40.036 10.6827 39.6306 11.024C39.2253 11.3547 38.7186 11.6267 38.1106 11.84C37.5026 12.0533 36.772 12.16 35.9186 12.16Z" fill="#0F375A"/>
</svg>
