<svg width="1440" height="610" viewBox="0 0 1440 610" fill="none" xmlns="http://www.w3.org/2000/svg">
<rect width="1440" height="609" fill="#0F375A"/>
<path d="M168.308 79.272C165.973 79.272 163.979 78.7393 162.324 77.674C160.692 76.586 159.457 75.124 158.618 73.288C157.802 71.4293 157.394 69.3667 157.394 67.1C157.394 64.8107 157.813 62.7367 158.652 60.878C159.491 58.9967 160.726 57.5007 162.358 56.39C164.013 55.2793 165.996 54.724 168.308 54.724C170.62 54.724 172.592 55.2793 174.224 56.39C175.856 57.478 177.091 58.9627 177.93 60.844C178.769 62.7027 179.188 64.788 179.188 67.1C179.188 69.3893 178.769 71.4633 177.93 73.322C177.091 75.158 175.845 76.6087 174.19 77.674C172.558 78.7393 170.597 79.272 168.308 79.272ZM168.308 75.056C170.167 75.056 171.606 74.308 172.626 72.812C173.646 71.2933 174.156 69.3667 174.156 67.032C174.156 65.536 173.929 64.176 173.476 62.952C173.045 61.728 172.388 60.7533 171.504 60.028C170.62 59.3027 169.555 58.94 168.308 58.94C167.061 58.94 165.985 59.314 165.078 60.062C164.194 60.7873 163.525 61.762 163.072 62.986C162.619 64.21 162.392 65.57 162.392 67.066C162.392 69.3553 162.902 71.2593 163.922 72.778C164.965 74.2967 166.427 75.056 168.308 75.056ZM198.928 79H194.202V76.144H193.964C193.556 77.028 192.91 77.7873 192.026 78.422C191.165 79.034 190.099 79.34 188.83 79.34C186.541 79.34 184.931 78.592 184.002 77.096C183.073 75.5773 182.608 73.8773 182.608 71.996V61.048H187.3V71.214C187.3 72.506 187.595 73.5373 188.184 74.308C188.773 75.056 189.612 75.43 190.7 75.43C191.879 75.43 192.751 75.0333 193.318 74.24C193.907 73.4467 194.202 72.438 194.202 71.214V61.048H198.928V79ZM202.832 61.048H207.49V63.904H207.728C208.022 63.1107 208.566 62.442 209.36 61.898C210.153 61.3313 211.173 61.048 212.42 61.048C212.896 61.048 213.304 61.0933 213.644 61.184L213.44 65.502C212.873 65.3433 212.272 65.264 211.638 65.264C210.232 65.264 209.19 65.638 208.51 66.386C207.83 67.1113 207.49 68.324 207.49 70.024V79H202.832V61.048ZM225.992 79.102C224.882 79.102 223.941 79.0113 223.17 78.83V75.464C223.533 75.5547 224.043 75.6 224.7 75.6C225.471 75.6 226.038 75.464 226.4 75.192C226.763 74.8973 226.99 74.546 227.08 74.138C227.171 73.73 227.216 73.1973 227.216 72.54V55.2H231.874V73.9C231.874 77.368 229.914 79.102 225.992 79.102ZM244.155 79.272C242.274 79.272 240.687 78.8527 239.395 78.014C238.126 77.1527 237.174 76.0193 236.539 74.614C235.905 73.2087 235.587 71.6673 235.587 69.99C235.587 68.3127 235.893 66.7713 236.505 65.366C237.14 63.938 238.103 62.7933 239.395 61.932C240.687 61.0707 242.274 60.64 244.155 60.64C246.037 60.64 247.623 61.0707 248.915 61.932C250.207 62.7707 251.171 63.8927 251.805 65.298C252.44 66.7033 252.757 68.2447 252.757 69.922C252.757 71.5993 252.44 73.152 251.805 74.58C251.171 75.9853 250.207 77.1187 248.915 77.98C247.623 78.8413 246.037 79.272 244.155 79.272ZM244.155 75.464C245.47 75.464 246.456 74.9427 247.113 73.9C247.793 72.8347 248.133 71.5087 248.133 69.922C248.133 68.3353 247.793 67.032 247.113 66.012C246.456 64.9693 245.47 64.448 244.155 64.448C242.841 64.448 241.855 64.9693 241.197 66.012C240.54 67.032 240.211 68.3353 240.211 69.922C240.211 71.5087 240.54 72.8347 241.197 73.9C241.877 74.9427 242.863 75.464 244.155 75.464ZM272.406 79H267.68V76.144H267.442C267.034 77.028 266.388 77.7873 265.504 78.422C264.643 79.034 263.578 79.34 262.308 79.34C260.019 79.34 258.41 78.592 257.48 77.096C256.551 75.5773 256.086 73.8773 256.086 71.996V61.048H260.778V71.214C260.778 72.506 261.073 73.5373 261.662 74.308C262.252 75.056 263.09 75.43 264.178 75.43C265.357 75.43 266.23 75.0333 266.796 74.24C267.386 73.4467 267.68 72.438 267.68 71.214V61.048H272.406V79ZM276.31 61.048H280.968V63.904H281.206C281.501 63.1107 282.045 62.442 282.838 61.898C283.632 61.3313 284.652 61.048 285.898 61.048C286.374 61.048 286.782 61.0933 287.122 61.184L286.918 65.502C286.352 65.3433 285.751 65.264 285.116 65.264C283.711 65.264 282.668 65.638 281.988 66.386C281.308 67.1113 280.968 68.324 280.968 70.024V79H276.31V61.048ZM289.887 61.048H294.647V63.802H294.885C295.293 62.918 295.951 62.17 296.857 61.558C297.764 60.9233 298.863 60.606 300.155 60.606C302.49 60.606 304.133 61.354 305.085 62.85C306.06 64.346 306.547 66.046 306.547 67.95V79H301.855V68.732C301.855 67.4173 301.538 66.386 300.903 65.638C300.291 64.89 299.419 64.516 298.285 64.516C297.084 64.516 296.177 64.9127 295.565 65.706C294.953 66.4767 294.647 67.4853 294.647 68.732V79H289.887V61.048ZM318.398 79.272C316.516 79.272 314.93 78.8413 313.638 77.98C312.346 77.096 311.382 75.9513 310.748 74.546C310.136 73.118 309.83 71.588 309.83 69.956C309.83 68.324 310.136 66.8053 310.748 65.4C311.382 63.972 312.346 62.816 313.638 61.932C314.93 61.048 316.528 60.606 318.432 60.606C320.948 60.606 322.942 61.4107 324.416 63.02C325.912 64.6293 326.66 66.9527 326.66 69.99V71.282H314.352V71.554C314.352 72.642 314.726 73.5827 315.474 74.376C316.222 75.1467 317.162 75.532 318.296 75.532C319.18 75.532 319.928 75.328 320.54 74.92C321.152 74.512 321.594 73.9567 321.866 73.254H326.49C326.014 75.022 325.084 76.4727 323.702 77.606C322.319 78.7167 320.551 79.272 318.398 79.272ZM322.138 68.222C322.092 66.794 321.73 65.74 321.05 65.06C320.37 64.38 319.474 64.04 318.364 64.04C317.185 64.04 316.256 64.414 315.576 65.162C314.896 65.91 314.533 66.93 314.488 68.222H322.138ZM337.634 81.55C337.317 82.3887 336.977 83.1253 336.614 83.76C336.251 84.4173 335.605 85.052 334.676 85.664C333.769 86.276 332.568 86.582 331.072 86.582C330.437 86.582 329.893 86.5253 329.44 86.412C328.987 86.3213 328.703 86.2647 328.59 86.242V82.944C328.953 83.0347 329.44 83.08 330.052 83.08C330.8 83.08 331.401 82.9553 331.854 82.706C332.307 82.4567 332.67 82.128 332.942 81.72C333.214 81.312 333.486 80.7453 333.758 80.02L334.336 78.592L327.876 61.048H332.636L336.512 73.39H336.716L340.796 61.048H345.556L337.634 81.55Z" fill="white"/>
<path d="M944.82 323.73V608.02H444.82V428.29H444V323.73H944.82Z" fill="#0A2740"/>
<path d="M682.71 323.729V271.689L661.9 252.689V270.689H650.22V252.689H628.31V159.689H608.95V252.349H602.75V273.349H591.79V261.689L568.8 240.699V256.019H562.21V261.349H556.74V266.689H550.9V229.019H543.96V168.019L528.62 149.689L505.98 162.689V231.019H496.49V245.019H483.71V299.689H477.14V199.349L444.82 169.849V334.349H625.75H682.71V323.729Z" fill="#0A2740"/>
<path d="M936.91 277.02H944.82V333.69H768.57V328.69L727.37 328.05L713.06 327.83L710.22 327.78L706.66 327.73L704.24 327.69V298.02C704.24 298.02 705.34 297.87 706.94 297.7C707.82 297.6 708.85 297.5 709.94 297.4C714.18 297.05 719.24 296.86 719.24 298.02C719.24 300.02 719.24 308.02 719.24 308.02H729.91V290.35H746.57V302.69H751.57V277.35L767.41 293.19V298.02H780.24V270.35H806.91V276.02H839.24V226.35H864.24V250.02H877.24V260.69H894.57V282.02H911.57V239.02L922.07 249.52V258.02H936.91V277.02Z" fill="#0A2740"/>
<path d="M881.23 207.281C880.89 207.281 880.58 207.041 880.52 206.691L876.64 186.601C876.56 186.211 876.82 185.821 877.22 185.751C877.62 185.671 878 185.931 878.07 186.331L881.95 206.421C882.03 206.811 881.77 207.201 881.37 207.271C881.32 207.281 881.28 207.281 881.23 207.281Z" fill="#0A2740"/>
<path d="M887.04 207.281C886.67 207.281 886.35 207.001 886.32 206.621L884.31 186.261C884.27 185.861 884.56 185.501 884.96 185.461C885.37 185.421 885.72 185.711 885.76 186.111L887.77 206.471C887.81 206.871 887.52 207.231 887.12 207.271C887.08 207.281 887.06 207.281 887.04 207.281Z" fill="#0A2740"/>
<path d="M907.87 207.28C907.82 207.28 907.78 207.28 907.73 207.27C907.34 207.19 907.08 206.81 907.15 206.42L911.03 186.33C911.11 185.94 911.49 185.68 911.88 185.75C912.27 185.83 912.53 186.21 912.46 186.6L908.58 206.69C908.51 207.04 908.21 207.28 907.87 207.28Z" fill="#0A2740"/>
<path d="M902.06 207.28C902.04 207.28 902.01 207.28 901.99 207.28C901.59 207.24 901.3 206.88 901.34 206.48L903.35 186.12C903.39 185.72 903.74 185.43 904.15 185.47C904.55 185.51 904.84 185.87 904.8 186.27L902.79 206.63C902.75 207 902.43 207.28 902.06 207.28Z" fill="#0A2740"/>
<path d="M910.74 208.641L910.25 210.481L906.14 225.831H884.13L880.01 210.481L879.53 208.641H910.74Z" fill="#0A2740"/>
<path d="M913.08 207.441V208.001C913.08 209.361 911.96 210.471 910.6 210.471H879.83C878.46 210.471 877.35 209.361 877.35 208.001V207.441C877.35 206.081 878.46 204.961 879.83 204.961H910.6C911.96 204.971 913.08 206.091 913.08 207.441Z" fill="#0A2740"/>
<path d="M915.08 185.24V185.8C915.08 187.16 913.97 188.27 912.61 188.27H877.83C876.47 188.27 875.36 187.16 875.36 185.8V185.24C875.36 184.04 876.23 183.04 877.36 182.82C877.51 182.78 877.67 182.77 877.83 182.77H912.61C912.77 182.77 912.93 182.78 913.08 182.82C914.21 183.04 915.08 184.04 915.08 185.24Z" fill="#0A2740"/>
<path d="M913.08 176.59H877.35V182.88H913.08V176.59Z" fill="#0A2740"/>
<path d="M926.43 151.21C926.43 161.82 921.15 171.19 913.08 176.85C908 180.41 901.81 182.51 895.13 182.51C888.53 182.51 882.41 180.47 877.35 176.98C869.18 171.33 863.83 161.9 863.83 151.21C863.83 133.93 877.85 119.91 895.13 119.91C912.42 119.92 926.43 133.93 926.43 151.21Z" fill="#0A2740"/>
<path d="M1443.82 324.73V609.02H943.82V429.29H943V324.73H1443.82Z" fill="#0A2740"/>
<path d="M1181.71 324.729V272.689L1160.9 253.689V271.689H1149.22V253.689H1127.31V160.689H1107.95V253.349H1101.75V274.349H1090.79V262.689L1067.8 241.699V257.019H1061.21V262.349H1055.74V267.689H1049.9V230.019H1042.96V169.019L1027.62 150.689L1004.98 163.689V232.019H995.49V246.019H982.71V300.689H976.14V200.349L943.82 170.849V335.349H1124.75H1181.71V324.729Z" fill="#0A2740"/>
<path d="M1435.91 278.02H1443.82V334.69H1267.57V329.69L1226.37 329.05L1212.06 328.83L1209.22 328.78L1205.66 328.73L1203.24 328.69V299.02C1203.24 299.02 1204.34 298.87 1205.94 298.7C1206.82 298.6 1207.85 298.5 1208.94 298.4C1213.18 298.05 1218.24 297.86 1218.24 299.02C1218.24 301.02 1218.24 309.02 1218.24 309.02H1228.91V291.35H1245.57V303.69H1250.57V278.35L1266.41 294.19V299.02H1279.24V271.35H1305.91V277.02H1338.24V227.35H1363.24V251.02H1376.24V261.69H1393.57V283.02H1410.57V240.02L1421.07 250.52V259.02H1435.91V278.02Z" fill="#0A2740"/>
<path d="M444.82 324.73V609.02H-55.18V429.29H-56V324.73H444.82Z" fill="#0A2740"/>
<path d="M182.71 324.729V272.689L161.9 253.689V271.689H150.22V253.689H128.31V160.689H108.95V253.349H102.75V274.349H91.79V262.689L68.8 241.699V257.019H62.21V262.349H56.74V267.689H50.9V230.019H43.96V169.019L28.62 150.689L5.98001 163.689V232.019H-3.50999V246.019H-16.29V300.689H-22.86V200.349L-55.18 170.849V335.349H125.75H182.71V324.729Z" fill="#0A2740"/>
<path d="M436.91 278.02H444.82V334.69H268.57V329.69L227.37 329.05L213.06 328.83L210.22 328.78L206.66 328.73L204.24 328.69V299.02C204.24 299.02 205.34 298.87 206.94 298.7C207.82 298.6 208.85 298.5 209.94 298.4C214.18 298.05 219.24 297.86 219.24 299.02C219.24 301.02 219.24 309.02 219.24 309.02H229.91V291.35H246.57V303.69H251.57V278.35L267.41 294.19V299.02H280.24V271.35H306.91V277.02H339.24V227.35H364.24V251.02H377.24V261.69H394.57V283.02H411.57V240.02L422.07 250.52V259.02H436.91V278.02Z" fill="#0A2740"/>
<path d="M381.23 208.281C380.89 208.281 380.58 208.041 380.52 207.691L376.64 187.601C376.56 187.211 376.82 186.821 377.22 186.751C377.62 186.671 378 186.931 378.07 187.331L381.95 207.421C382.03 207.811 381.77 208.201 381.37 208.271C381.32 208.281 381.28 208.281 381.23 208.281Z" fill="#0A2740"/>
<path d="M387.04 208.281C386.67 208.281 386.35 208.001 386.32 207.621L384.31 187.261C384.27 186.861 384.56 186.501 384.96 186.461C385.37 186.421 385.72 186.711 385.76 187.111L387.77 207.471C387.81 207.871 387.52 208.231 387.12 208.271C387.08 208.281 387.06 208.281 387.04 208.281Z" fill="#0A2740"/>
<path d="M407.87 208.28C407.82 208.28 407.78 208.28 407.73 208.27C407.34 208.19 407.08 207.81 407.15 207.42L411.03 187.33C411.11 186.94 411.49 186.68 411.88 186.75C412.27 186.83 412.53 187.21 412.46 187.6L408.58 207.69C408.51 208.04 408.21 208.28 407.87 208.28Z" fill="#0A2740"/>
<path d="M402.06 208.28C402.04 208.28 402.01 208.28 401.99 208.28C401.59 208.24 401.3 207.88 401.34 207.48L403.35 187.12C403.39 186.72 403.74 186.43 404.15 186.47C404.55 186.51 404.84 186.87 404.8 187.27L402.79 207.63C402.75 208 402.43 208.28 402.06 208.28Z" fill="#0A2740"/>
<path d="M410.74 209.641L410.25 211.481L406.14 226.831H384.13L380.01 211.481L379.53 209.641H410.74Z" fill="#0A2740"/>
<path d="M413.08 208.441V209.001C413.08 210.361 411.96 211.471 410.6 211.471H379.83C378.46 211.471 377.35 210.361 377.35 209.001V208.441C377.35 207.081 378.46 205.961 379.83 205.961H410.6C411.96 205.971 413.08 207.091 413.08 208.441Z" fill="#0A2740"/>
<path d="M415.08 186.24V186.8C415.08 188.16 413.97 189.27 412.61 189.27H377.83C376.47 189.27 375.36 188.16 375.36 186.8V186.24C375.36 185.04 376.23 184.04 377.36 183.82C377.51 183.78 377.67 183.77 377.83 183.77H412.61C412.77 183.77 412.93 183.78 413.08 183.82C414.21 184.04 415.08 185.04 415.08 186.24Z" fill="#0A2740"/>
<path d="M413.08 177.59H377.35V183.88H413.08V177.59Z" fill="#0A2740"/>
<path d="M426.43 152.21C426.43 162.82 421.15 172.19 413.08 177.85C408 181.41 401.81 183.51 395.13 183.51C388.53 183.51 382.41 181.47 377.35 177.98C369.18 172.33 363.83 162.9 363.83 152.21C363.83 134.93 377.85 120.91 395.13 120.91C412.42 120.92 426.43 134.93 426.43 152.21Z" fill="#0A2740"/>
</svg>
